<svg width="480" height="158" viewBox="0 0 480 158" fill="none" xmlns="http://www.w3.org/2000/svg">
<g clip-path="url(#clip0_558_1977)">
<path d="M262.168 30.64C261.268 30.37 260.278 29.66 260.278 28.04V5.7C260.278 4.28 261.348 3.74 262.168 3.53V1.22H250.238V3.53C251.058 3.74 252.128 4.29 252.128 5.7V14.88H240.428V14.8L240.418 5.7C240.418 4.24 241.548 3.71 242.378 3.51V1.22H230.218V3.49C231.048 3.67 232.278 4.19 232.278 5.7V28.03C232.278 29.55 231.048 30.07 230.218 30.25V32.51H242.378V30.22C241.548 30.03 240.418 29.49 240.418 28.03V18.85H252.138V28.03C252.138 29.46 251.068 30 250.248 30.2V32.59H262.178V30.64H262.168ZM181.878 1.22V3.51C182.708 3.71 183.848 4.24 183.848 5.7V19.31L161.578 0V28.04C161.578 29.53 160.398 30.06 159.568 30.24V32.52H168.248V30.24C167.418 30.05 166.248 29.53 166.248 28.04V14.89L188.518 33.5V5.7C188.518 4.19 189.728 3.67 190.558 3.49V1.22H181.878ZM128.038 23.32C128.038 19.52 124.998 16.8 115.838 16.82V28.04C115.838 29.95 117.768 30.28 118.428 30.34C124.928 30.93 128.038 26.67 128.038 23.32ZM115.838 14.15H117.528C124.608 14.15 126.718 11.74 126.718 8.77C126.718 5.98 124.538 2.67 118.298 3.42C117.548 3.51 115.838 3.91 115.838 5.7V14.15ZM135.908 23.67C135.908 30.34 129.658 32.52 122.068 32.52H105.738V30.24C106.568 30.05 107.718 29.52 107.718 28.04V5.7C107.718 4.24 106.568 3.7 105.738 3.51V1.22L122.068 1.27C127.988 1.27 134.218 4.32 134.218 8.77C134.218 13.22 130.188 15.03 127.208 15.03C132.508 16.59 135.908 19.84 135.908 23.66M153.658 30.25C152.828 30.07 151.618 29.55 151.618 28.04V5.7C151.618 4.19 152.828 3.67 153.658 3.49V1.22H141.498V3.51C142.328 3.7 143.478 4.24 143.478 5.7V28.03C143.478 29.5 142.328 30.04 141.498 30.23V32.51H153.658V30.24V30.25ZM283.018 20.84L279.278 11.84L275.538 20.84H283.018ZM296.828 30.42V32.59H284.828V30.35C285.748 30.15 286.588 29.49 286.128 28.31L284.678 24.81H273.888L272.468 28.22C271.928 29.45 272.908 30.42 273.708 30.42H273.928V32.59H265.718V30.63C266.908 30.24 267.868 29.14 268.348 28L279.838 1.98C280.048 1.47 280.528 1.14 281.068 1.14C281.608 1.14 282.088 1.47 282.298 1.97L294.178 28.81C295.098 30.67 296.828 30.42 296.828 30.42ZM225.668 18.82H214.318V21.11C215.148 21.31 216.288 21.84 216.288 23.3L216.368 29.81C215.478 30.05 214.558 30.18 213.608 30.18C207.048 30.18 202.778 24.17 202.778 16.76C202.778 9.35 207.038 3.34 213.608 3.34C218.758 3.34 221.008 6.99 221.988 8.77L223.698 8.3L222.428 1.13L220.288 1.27C218.658 1.44 215.518 0.54 212.648 0.54C202.538 0.54 194.338 7.84 194.338 16.85C194.338 25.86 202.538 33.17 212.648 33.17C216.798 33.17 220.628 31.94 223.698 29.86L223.728 23.28C223.728 21.84 224.838 21.3 225.658 21.1V18.8L225.668 18.82ZM369.228 30.25C368.378 30.07 367.128 29.55 367.128 28.04V5.7C367.128 4.19 368.378 3.67 369.228 3.49V1.22H356.538V3.46C357.388 3.62 358.758 4.12 358.758 5.69V28.02C358.758 29.6 357.388 30.1 356.538 30.26V32.5H369.228V30.23V30.25ZM332.208 32.6H344.638V30.26C343.808 30.09 342.548 29.58 342.548 28.04V4.57H349.098C350.358 4.57 350.938 7.61 351.598 8.45L353.198 7.68L351.978 0.86C351.858 0.89 348.478 1.3 347.808 1.3H328.218C327.638 1.3 325.368 0.77 325.198 0.72L323.808 7.68L325.408 8.45C326.078 7.61 326.668 4.73 327.908 4.57H334.418V28.04C334.418 29.65 333.048 30.17 332.218 30.34V32.59L332.208 32.6ZM314.708 32.6H302.278V30.26C303.108 30.09 304.368 29.58 304.368 28.04V4.57H297.818C296.558 4.57 295.978 7.61 295.318 8.45L293.718 7.68L294.938 0.86C295.058 0.89 298.438 1.3 299.108 1.3H317.778C318.358 1.3 320.628 0.77 320.798 0.72L322.188 7.68L320.588 8.45C319.928 7.61 319.328 4.73 318.088 4.57H312.498V28.04C312.498 29.65 313.868 30.17 314.698 30.34V32.59L314.708 32.6ZM479.818 149.21L477.698 155.45H437.278V64.62H445.758V153.2H448.628C456.108 153.2 466.588 152.45 479.568 149.21H479.818ZM425.308 149.21L423.188 155.45H382.758V64.62H391.248V153.2H394.118C401.608 153.2 412.088 152.45 425.058 149.21H425.308ZM349.698 123.14L331.608 77.1L316.138 116.65L313.648 123.14H349.708H349.698ZM350.578 125.38H312.768C307.158 140.1 305.278 148.09 304.158 155.45H297.548C303.038 142.97 308.148 129.87 313.768 115.77L334.608 62.99H335.108L371.538 155.44H362.308L350.578 125.37V125.38ZM286.948 64.62V155.45H278.338V109.29H229.558V155.45H221.078V64.62H229.558V107.04H278.338V64.62H286.948ZM187.138 101.68L179.528 115.03V155.45H171.048V115.52L141.478 64.62H151.338L178.418 112.16L185.028 100.56C194.138 84.71 199.748 73.11 202.498 64.63H208.858C201.368 76.98 194.508 88.71 187.148 101.68M105.168 93.82L93.4383 104.92L136.978 146.22V157.32H136.358L85.5783 108.91L103.548 91.94C117.018 79.34 124.758 70.48 128.748 64.61H136.978V64.86C126.498 74.09 116.018 83.7 105.168 93.81M72.3583 64.62H80.8383V155.45H72.3583V64.62ZM-0.00171875 150.09L1.86828 143.98C7.97828 150.47 19.5883 154.96 29.1883 154.96C41.5383 154.96 50.7783 147.35 50.7783 136.25C50.7783 123.77 40.2983 118.16 30.8183 113.67L24.5783 110.8C14.0983 105.81 1.61828 99.57 1.61828 85.72C1.61828 72.74 12.4683 63.14 28.8183 63.14C38.2983 63.14 48.0283 66.51 53.7683 70L52.2683 75.49C46.5283 70 37.5483 65.13 27.6883 65.13C15.5883 65.13 8.59828 72.49 8.59828 81.6C8.59828 92.7 17.9583 97.57 28.3083 102.56L34.5483 105.43C46.5283 111.17 57.5083 116.91 57.5083 131.63C57.5083 147.72 43.9083 156.96 28.3083 156.96C18.1983 156.96 6.71828 153.59 -0.0117188 150.1" fill="#515151"/>
</g>
<defs>
<clipPath id="clip0_558_1977">
<rect width="479.82" height="157.32" fill="white"/>
</clipPath>
</defs>
</svg>
