<svg width="21" height="22" viewBox="0 0 21 22" fill="none" xmlns="http://www.w3.org/2000/svg">
<g clip-path="url(#clip0_2171_1954)">
<path d="M20.8 9.26823V17.0682C20.8 19.4602 18.8587 21.4016 16.4667 21.4016H4.33333C1.94133 21.4016 0 19.4602 0 17.0682V7.5349C0 5.1429 1.94133 3.20156 4.33333 3.20156H11.2667C11.7433 3.20156 12.1333 3.59156 12.1333 4.06823C12.1333 4.5449 11.7433 4.9349 11.2667 4.9349H4.33333C3.33667 4.9349 2.47867 5.49823 2.03667 6.3129L8.56267 12.8389C9.57667 13.8529 11.2233 13.8529 12.2373 12.8389L15.548 9.52823C15.886 9.19023 16.432 9.19023 16.77 9.52823C17.108 9.86623 17.108 10.4122 16.77 10.7502L13.4593 14.0609C12.6187 14.9016 11.5007 15.3262 10.3913 15.3262C9.282 15.3262 8.17267 14.9016 7.32333 14.0609L1.73333 8.46223V17.0682C1.73333 18.4982 2.90333 19.6682 4.33333 19.6682H16.4667C17.8967 19.6682 19.0667 18.4982 19.0667 17.0682V9.26823C19.0667 8.79156 19.4567 8.40156 19.9333 8.40156C20.41 8.40156 20.8 8.79156 20.8 9.26823ZM13.8667 4.06823C13.8667 2.1529 15.418 0.601562 17.3333 0.601562C19.2487 0.601562 20.8 2.1529 20.8 4.06823C20.8 5.98356 19.2487 7.5349 17.3333 7.5349C15.418 7.5349 13.8667 5.98356 13.8667 4.06823ZM15.6 4.06823C15.6 5.02156 16.38 5.80156 17.3333 5.80156C18.2867 5.80156 19.0667 5.02156 19.0667 4.06823C19.0667 3.1149 18.2867 2.3349 17.3333 2.3349C16.38 2.3349 15.6 3.1149 15.6 4.06823Z" fill="#AAAAAA"/>
</g>
<defs>
<clipPath id="clip0_2171_1954">
<rect width="20.8" height="20.8" fill="white" transform="translate(0 0.601562)"/>
</clipPath>
</defs>
</svg>
