<svg width="21" height="22" viewBox="0 0 21 22" fill="none" xmlns="http://www.w3.org/2000/svg">
<g clip-path="url(#clip0_2171_1948)">
<path d="M10.3992 11.0016C11.4277 11.0016 12.433 10.6966 13.2882 10.1252C14.1433 9.55382 14.8098 8.74169 15.2034 7.79152C15.597 6.84134 15.6999 5.7958 15.4993 4.7871C15.2987 3.77839 14.8034 2.85184 14.0762 2.12461C13.3489 1.39738 12.4224 0.902125 11.4137 0.701481C10.405 0.500838 9.35944 0.603816 8.40926 0.997391C7.45909 1.39097 6.64696 2.05746 6.07558 2.9126C5.50419 3.76774 5.19922 4.7731 5.19922 5.80157C5.2006 7.18027 5.74889 8.50211 6.72378 9.477C7.69867 10.4519 9.02052 11.0002 10.3992 11.0016ZM10.3992 2.3349C11.0849 2.3349 11.7551 2.53821 12.3252 2.91914C12.8953 3.30006 13.3396 3.84148 13.602 4.47493C13.8644 5.10838 13.933 5.80541 13.7993 6.47788C13.6655 7.15035 13.3353 7.76805 12.8505 8.25287C12.3657 8.73769 11.748 9.06786 11.0755 9.20162C10.4031 9.33538 9.70603 9.26673 9.07258 9.00435C8.43913 8.74196 7.89771 8.29763 7.51679 7.72754C7.13587 7.15745 6.93255 6.48721 6.93255 5.80157C6.93255 4.88215 7.29779 4.00039 7.94792 3.35026C8.59804 2.70014 9.4798 2.3349 10.3992 2.3349Z" fill="#AAAAAA"/>
<path d="M10.4016 12.7344C8.33358 12.7367 6.35095 13.5592 4.88866 15.0215C3.42638 16.4838 2.60386 18.4664 2.60156 20.5344C2.60156 20.7642 2.69287 20.9847 2.8554 21.1472C3.01793 21.3097 3.23837 21.401 3.46823 21.401C3.69808 21.401 3.91852 21.3097 4.08105 21.1472C4.24359 20.9847 4.3349 20.7642 4.3349 20.5344C4.3349 18.9254 4.97406 17.3823 6.11178 16.2446C7.2495 15.1069 8.79258 14.4677 10.4016 14.4677C12.0105 14.4677 13.5536 15.1069 14.6913 16.2446C15.8291 17.3823 16.4682 18.9254 16.4682 20.5344C16.4682 20.7642 16.5595 20.9847 16.7221 21.1472C16.8846 21.3097 17.105 21.401 17.3349 21.401C17.5648 21.401 17.7852 21.3097 17.9477 21.1472C18.1103 20.9847 18.2016 20.7642 18.2016 20.5344C18.1993 18.4664 17.3767 16.4838 15.9145 15.0215C14.4522 13.5592 12.4695 12.7367 10.4016 12.7344Z" fill="#AAAAAA"/>
</g>
<defs>
<clipPath id="clip0_2171_1948">
<rect width="20.8" height="20.8" fill="white" transform="translate(0 0.601562)"/>
</clipPath>
</defs>
</svg>
