<svg width="21" height="22" viewBox="0 0 21 22" fill="none" xmlns="http://www.w3.org/2000/svg">
<g clip-path="url(#clip0_2171_1959)">
<path d="M11.2641 1.46961C11.2641 1.23976 11.3554 1.01932 11.5179 0.856787C11.6804 0.694256 11.9009 0.602947 12.1307 0.602947C14.4285 0.60547 16.6314 1.51937 18.2562 3.14414C19.881 4.76891 20.7949 6.97185 20.7974 9.26961C20.7974 9.49947 20.7061 9.71991 20.5435 9.88244C20.381 10.045 20.1606 10.1363 19.9307 10.1363C19.7009 10.1363 19.4804 10.045 19.3179 9.88244C19.1554 9.71991 19.064 9.49947 19.064 9.26961C19.062 7.43141 18.3308 5.66909 17.031 4.36929C15.7312 3.06948 13.9689 2.33834 12.1307 2.33628C11.9009 2.33628 11.6804 2.24497 11.5179 2.08244C11.3554 1.91991 11.2641 1.69947 11.2641 1.46961ZM12.1307 5.80295C13.0501 5.80295 13.9319 6.16818 14.582 6.81831C15.2321 7.46844 15.5974 8.3502 15.5974 9.26961C15.5974 9.49947 15.6887 9.71991 15.8512 9.88244C16.0138 10.045 16.2342 10.1363 16.464 10.1363C16.6939 10.1363 16.9143 10.045 17.0769 9.88244C17.2394 9.71991 17.3307 9.49947 17.3307 9.26961C17.3293 7.89091 16.781 6.56907 15.8062 5.59418C14.8313 4.61929 13.5094 4.07099 12.1307 4.06961C11.9009 4.06961 11.6804 4.16092 11.5179 4.32345C11.3554 4.48599 11.2641 4.70643 11.2641 4.93628C11.2641 5.16613 11.3554 5.38657 11.5179 5.54911C11.6804 5.71164 11.9009 5.80295 12.1307 5.80295ZM20.0113 15.1101C20.5136 15.6137 20.7956 16.296 20.7956 17.0072C20.7956 17.7185 20.5136 18.4007 20.0113 18.9043L19.2226 19.8135C12.1247 26.609 -5.14802 9.34068 1.54265 2.22015L2.53932 1.35348C3.04352 0.865267 3.71966 0.595189 4.42146 0.601677C5.12326 0.608164 5.7943 0.890696 6.28938 1.38815C6.31625 1.41501 7.92218 3.50108 7.92218 3.50108C8.3987 4.00169 8.66397 4.66669 8.66284 5.35783C8.66171 6.04897 8.39427 6.7131 7.91612 7.21215L6.91252 8.47401C7.46792 9.82351 8.2845 11.05 9.31536 12.0829C10.3462 13.1158 11.571 13.9349 12.9194 14.493L14.189 13.4833C14.6882 13.0056 15.3522 12.7384 16.0431 12.7375C16.734 12.7365 17.3988 13.0018 17.8992 13.4781C17.8992 13.4781 19.9844 15.0832 20.0113 15.1101ZM18.8188 16.3702C18.8188 16.3702 16.7448 14.7747 16.718 14.7478C16.5394 14.5708 16.2982 14.4715 16.0467 14.4715C15.7953 14.4715 15.5541 14.5708 15.3755 14.7478C15.3521 14.7721 13.6041 16.1648 13.6041 16.1648C13.4863 16.2586 13.3461 16.32 13.1973 16.3431C13.0485 16.3662 12.8963 16.3502 12.7556 16.2965C11.0088 15.6462 9.42215 14.628 8.10317 13.3109C6.78419 11.9939 5.76366 10.4088 5.11072 8.66295C5.05282 8.52034 5.03395 8.36489 5.05603 8.21257C5.07812 8.06026 5.14037 7.91657 5.23638 7.79628C5.23638 7.79628 6.62912 6.04735 6.65252 6.02481C6.82955 5.84627 6.92888 5.60501 6.92888 5.35358C6.92888 5.10215 6.82955 4.86089 6.65252 4.68235C6.62565 4.65635 5.03012 2.58068 5.03012 2.58068C4.8489 2.41819 4.61239 2.33116 4.36906 2.33745C4.12574 2.34373 3.89404 2.44285 3.72145 2.61448L2.72478 3.48115C-2.16495 9.36061 12.8032 23.4985 17.9556 18.6296L18.7451 17.7196C18.9301 17.5482 19.0413 17.3116 19.055 17.0598C19.0688 16.808 18.984 16.5607 18.8188 16.3702Z" fill="#AAAAAA"/>
</g>
<defs>
<clipPath id="clip0_2171_1959">
<rect width="20.8" height="20.8" fill="white" transform="translate(0 0.601562)"/>
</clipPath>
</defs>
</svg>
