<svg width="24" height="24" viewBox="0 0 24 24" fill="none" xmlns="http://www.w3.org/2000/svg">
<g clip-path="url(#clip0_960_3298)">
<path d="M18.4948 17.5708C18.3672 17.8399 18.2112 18.0942 18.0127 18.3335C17.6582 18.7373 17.2753 19.0363 16.85 19.2158C16.4246 19.4103 15.9567 19.5 15.4604 19.5C14.7373 19.5 13.9575 19.3205 13.1492 18.9467C12.3269 18.5728 11.5187 18.0793 10.7105 17.4661C9.88809 16.8379 9.12236 16.1351 8.38505 15.3723C7.64774 14.5947 6.99548 13.7721 6.39995 12.9197C5.81861 12.0673 5.35073 11.2148 5.01043 10.3623C4.67013 9.50993 4.5 8.68743 4.5 7.90977C4.5 7.40127 4.58506 6.90777 4.75522 6.45911C4.92536 5.99551 5.19479 5.57676 5.57763 5.20289C6.03136 4.72432 6.5276 4.5 7.05226 4.5C7.25075 4.5 7.44916 4.54486 7.63349 4.63459C7.81782 4.72432 7.98807 4.85892 8.11564 5.05333L9.76043 7.50594C9.88801 7.70035 9.98726 7.86485 10.044 8.02935C10.1149 8.19385 10.1433 8.34344 10.1433 8.49302C10.1433 8.67244 10.0866 8.85193 9.98734 9.03143C9.88809 9.21085 9.76043 9.39027 9.59027 9.56977L9.05145 10.1679C8.96637 10.2577 8.93804 10.3474 8.93804 10.4671C8.93804 10.5269 8.9522 10.5867 8.96637 10.6465C8.9947 10.7063 9.00895 10.7513 9.02312 10.7961C9.15078 11.0503 9.37761 11.3643 9.68951 11.7532C10.0157 12.142 10.356 12.5458 10.7247 12.9347C11.1075 13.3384 11.4761 13.6973 11.859 14.0413C12.2276 14.3703 12.5395 14.5947 12.7806 14.7293C12.8231 14.7443 12.8657 14.7741 12.9082 14.7891C12.9649 14.819 13.0217 14.819 13.0926 14.819C13.2202 14.819 13.3052 14.7742 13.3903 14.6844L13.9291 14.1161C14.1134 13.9217 14.2836 13.7871 14.4395 13.6973C14.6097 13.5927 14.7657 13.5328 14.95 13.5328C15.0918 13.5328 15.2336 13.5628 15.3895 13.6375C15.5455 13.7123 15.7157 13.8021 15.8858 13.9367L18.2396 15.7013C18.4239 15.8359 18.5515 16.0005 18.6365 16.1799C18.7074 16.3743 18.75 16.5538 18.75 16.7632C18.6649 17.0174 18.6083 17.3016 18.4948 17.5708Z" fill="black"/>
<path d="M13.1433 4.51869C13.1962 4.5235 13.1962 4.5235 13.2502 4.5284C14.8791 4.69146 16.3569 5.3991 17.388 6.51066C18.0691 7.27429 18.4895 8.14348 18.6419 9.10025C18.6491 9.14272 18.6564 9.18512 18.6638 9.22884C18.7911 10.0216 18.7911 10.0216 18.5711 10.2829C18.4212 10.421 18.31 10.4771 18.0908 10.4999C17.9149 10.5019 17.755 10.4617 17.622 10.3593C17.4762 10.2072 17.4187 10.0468 17.4182 9.84823C17.4102 8.73438 16.9017 7.65763 15.9988 6.86931C15.1256 6.13641 14.0575 5.72222 12.8483 5.6315C12.8201 5.62928 12.7918 5.62707 12.7628 5.62479C12.6846 5.61899 12.6063 5.61424 12.528 5.60955C12.3284 5.57498 12.2207 5.49001 12.092 5.35683C11.9931 5.1995 11.9842 5.0784 12.0174 4.90268C12.2093 4.47142 12.6831 4.47594 13.1433 4.51869Z" fill="black"/>
<path d="M14.1179 6.29244C15.134 6.72259 15.824 7.48573 16.238 8.48113C16.3387 8.74453 16.3888 8.99672 16.4283 9.27478C16.4342 9.31356 16.4401 9.35235 16.4463 9.39232C16.5288 9.96982 16.5288 9.96982 16.3566 10.2125C16.3402 10.2367 16.3238 10.2608 16.3069 10.2857C16.1639 10.4492 16.0183 10.4758 15.8072 10.4994C15.618 10.5062 15.4988 10.4532 15.3533 10.3388C15.2168 10.1879 15.1528 10.063 15.133 9.86184C15.1286 9.82333 15.1243 9.78481 15.1199 9.74512C15.1154 9.70451 15.111 9.66381 15.1063 9.62202C15.0137 8.89348 14.7305 8.30587 14.1387 7.83735C13.7234 7.52634 13.227 7.37857 12.7113 7.33305C12.4724 7.31129 12.3198 7.27196 12.139 7.10962C12.0201 6.91351 11.9763 6.73852 12.0121 6.51218C12.0852 6.33554 12.1676 6.20895 12.3227 6.09239C12.8677 5.87388 13.5985 6.08483 14.1179 6.29244Z" fill="black"/>
<circle cx="12" cy="12" r="11.55" stroke="black" stroke-width="0.9"/>
</g>
<defs>
<clipPath id="clip0_960_3298">
<rect width="24" height="24" fill="white"/>
</clipPath>
</defs>
</svg>
