<svg width="28" height="28" viewBox="0 0 28 28" fill="none" xmlns="http://www.w3.org/2000/svg">
<g clip-path="url(#clip0_540_2590)">
<mask id="mask0_540_2590" style="mask-type:luminance" maskUnits="userSpaceOnUse" x="0" y="0" width="28" height="28">
<path d="M28 0H0V28H28V0Z" fill="white"/>
</mask>
<g mask="url(#mask0_540_2590)">
<path d="M8.93171 6.12502C8.9394 6.12504 8.94718 6.12506 8.95514 6.12508C9.06709 6.12554 9.17626 6.1277 9.28534 6.15569C9.29627 6.15845 9.29627 6.15845 9.30747 6.16127C9.67703 6.25732 9.96167 6.46089 10.1783 6.77382C10.2014 6.80717 10.2248 6.84028 10.2483 6.87341C10.2576 6.88653 10.2669 6.89965 10.2761 6.91277C10.2807 6.91927 10.2853 6.92576 10.29 6.93245C10.5539 7.30635 10.5539 7.30635 10.5678 7.32603C10.5771 7.33917 10.5863 7.35229 10.5956 7.36542C10.6186 7.39808 10.6417 7.43076 10.6647 7.46346C10.712 7.53068 10.7597 7.59757 10.8079 7.66405C10.8545 7.72816 10.8995 7.7932 10.9439 7.85874C10.9828 7.91586 11.023 7.97196 11.0637 8.02783C11.1179 8.10256 11.1707 8.17841 11.2236 8.25416C11.2476 8.28852 11.2716 8.3227 11.2958 8.35687C11.3026 8.3665 11.3026 8.3665 11.3095 8.37622C11.3185 8.389 11.3276 8.40188 11.3366 8.41466C11.3597 8.44725 11.3828 8.47994 11.4058 8.51254C11.4151 8.52569 11.4243 8.53884 11.4336 8.5519C11.5262 8.68313 11.6188 8.81435 11.7114 8.94549C11.7159 8.95206 11.7205 8.95854 11.7252 8.96521C11.7345 8.97836 11.7438 8.99151 11.753 9.00466C11.7805 9.04347 11.808 9.08236 11.8354 9.12126C11.8493 9.1408 11.863 9.16034 11.8768 9.17997C11.8969 9.20859 11.9173 9.23711 11.9377 9.26563C12.013 9.37111 12.0821 9.47891 12.1466 9.59143C12.1503 9.59791 12.1541 9.6044 12.1579 9.61097C12.2704 9.80517 12.3608 10.0317 12.3688 10.2582C12.3692 10.2668 12.3696 10.2754 12.3699 10.2842C12.3742 10.4752 12.322 10.6574 12.2304 10.8239C12.2206 10.8417 12.211 10.8598 12.2016 10.8779C12.078 11.1101 11.8997 11.3129 11.7134 11.4968C11.6951 11.5154 11.678 11.5344 11.661 11.5542C11.6344 11.5852 11.6061 11.6141 11.5771 11.6427C11.5484 11.671 11.5204 11.6995 11.4943 11.7301C11.4619 11.7682 11.4266 11.8028 11.391 11.8379C11.3599 11.8688 11.3307 11.9006 11.3024 11.9341C11.2811 11.9578 11.2584 11.9799 11.2356 12.0022C11.126 12.1108 11.0448 12.2136 11.0417 12.3726C11.0417 12.5819 11.1451 12.7735 11.2577 12.9439C11.2617 12.9502 11.2658 12.9564 11.2701 12.9627C11.4011 13.1601 11.5479 13.3459 11.6977 13.5291C11.7097 13.5439 11.7217 13.5586 11.7336 13.5733C11.8101 13.6675 11.889 13.7596 11.9705 13.8494C11.9877 13.8685 12.0046 13.8876 12.0216 13.907C12.053 13.9431 12.085 13.9787 12.1171 14.0141C12.1345 14.0335 12.1515 14.0529 12.1685 14.0726C12.2005 14.1093 12.2335 14.1451 12.2665 14.1809C12.2901 14.2067 12.3135 14.2325 12.3364 14.2589C12.3758 14.3044 12.4167 14.3484 12.4574 14.3927C12.4783 14.4154 12.499 14.4382 12.5198 14.461C12.6373 14.5895 12.6373 14.5895 12.7591 14.7139C12.7749 14.7299 12.7894 14.7463 12.8038 14.7634C12.8501 14.8166 12.9002 14.8659 12.9501 14.9156C12.9606 14.9261 12.9712 14.9367 12.9816 14.9473C13.0036 14.9692 13.0256 14.9911 13.0476 15.0131C13.0755 15.0411 13.1035 15.069 13.1314 15.097C13.1531 15.1188 13.1749 15.1404 13.1966 15.1622C13.2069 15.1725 13.2172 15.1828 13.2275 15.1931C13.2775 15.2432 13.3275 15.2928 13.3815 15.3386C13.4064 15.3602 13.4291 15.3837 13.4522 15.4072C13.4886 15.4442 13.5256 15.4795 13.5652 15.5131C13.5823 15.5281 13.5982 15.5438 13.6142 15.56C13.6351 15.5813 13.6565 15.6014 13.6791 15.6209C13.717 15.6536 13.7536 15.6878 13.7902 15.7221C13.8316 15.761 13.8731 15.7996 13.9163 15.8368C13.9372 15.8549 13.9577 15.8736 13.9782 15.8923C14.0103 15.9213 14.043 15.9491 14.0766 15.9762C14.1119 16.0048 14.1458 16.0341 14.1791 16.0648C14.2235 16.1057 14.2696 16.1441 14.3166 16.182C14.3341 16.1964 14.3516 16.2108 14.369 16.2253C14.4427 16.2864 14.5166 16.3468 14.5933 16.4044C14.6047 16.413 14.6161 16.4216 14.6274 16.4303C15.1129 16.8144 15.1129 16.8144 15.693 16.9445C15.8848 16.9108 16.0161 16.7434 16.1471 16.612C16.1683 16.5909 16.1894 16.5698 16.2105 16.5487C16.2241 16.535 16.2377 16.5214 16.2514 16.5078C16.2576 16.5016 16.2638 16.4954 16.2702 16.489C16.3059 16.4532 16.3397 16.4162 16.3728 16.378C16.3917 16.3564 16.4115 16.3359 16.4317 16.3156C16.4396 16.3079 16.4473 16.3 16.4554 16.2919C16.4634 16.2841 16.4713 16.2761 16.4795 16.2679C16.4874 16.26 16.4953 16.252 16.5035 16.2439C16.5447 16.2027 16.5864 16.163 16.6306 16.1251C16.6529 16.1058 16.674 16.0852 16.6954 16.0648C16.965 15.8146 17.3277 15.596 17.7043 15.6004C18.0567 15.6139 18.3946 15.7964 18.6747 15.9999C18.6882 16.0098 18.7017 16.0195 18.7152 16.0292C18.7434 16.0495 18.7715 16.0699 18.7996 16.0902C18.8397 16.1193 18.8801 16.1479 18.9206 16.1765C18.9271 16.1811 18.9335 16.1856 18.9401 16.1903C18.9597 16.204 18.9792 16.2178 18.9988 16.2315C19.0864 16.2931 19.1737 16.3552 19.2604 16.4181C19.3137 16.4566 19.3673 16.4946 19.4211 16.5323C19.4682 16.5656 19.5151 16.5993 19.5618 16.6332C19.6206 16.6759 19.6799 16.7178 19.7395 16.7593C19.8061 16.8058 19.8721 16.8529 19.9379 16.9006C19.9906 16.9388 20.0437 16.9764 20.0971 17.0139C20.1445 17.0472 20.1914 17.0812 20.2384 17.1153C20.2956 17.1569 20.3535 17.1973 20.412 17.2369C20.473 17.2782 20.5323 17.3211 20.5909 17.3658C20.6378 17.4014 20.6861 17.4348 20.735 17.4678C20.797 17.5097 20.8574 17.5533 20.9169 17.5986C20.9585 17.6301 21.0008 17.6602 21.0439 17.6895C21.1258 17.7451 21.206 17.803 21.2859 17.8614C21.2914 17.8654 21.2968 17.8694 21.3025 17.8735C21.3685 17.9215 21.4303 17.972 21.4896 18.0281C21.5008 18.0384 21.5008 18.0384 21.5123 18.0491C21.7312 18.2576 21.8318 18.5388 21.8693 18.8338C21.87 18.8398 21.8707 18.8457 21.8716 18.8518C21.8888 19.0084 21.8379 19.1453 21.7881 19.2911C21.7689 19.3474 21.7513 19.404 21.7342 19.461C21.6838 19.628 21.6281 19.7913 21.5456 19.9454C21.5391 19.9576 21.5327 19.9699 21.5263 19.9821C21.2765 20.4641 20.896 20.874 20.4618 21.1953C20.4525 21.2022 20.4525 21.2022 20.443 21.2093C19.8175 21.6749 19.0221 21.8796 18.2509 21.8749C18.2315 21.8748 18.2121 21.8747 18.1928 21.8747C18.0002 21.8741 17.8101 21.8687 17.6191 21.8435C17.6061 21.842 17.5931 21.8404 17.5802 21.8387C17.1707 21.7879 16.77 21.6947 16.3783 21.5657C16.3695 21.5628 16.3695 21.5628 16.3605 21.5599C16.0688 21.4641 15.7869 21.348 15.5072 21.2218C15.4906 21.2144 15.4742 21.207 15.4576 21.1996C15.3015 21.1296 15.1482 21.0535 14.9951 20.9771C14.9853 20.9723 14.9755 20.9674 14.9654 20.9624C14.837 20.8984 14.71 20.8321 14.5845 20.7625C14.5662 20.7524 14.5481 20.7424 14.5298 20.7324C14.3847 20.6529 14.2432 20.5682 14.1021 20.4817C14.0679 20.4609 14.0334 20.4403 13.999 20.4198C13.6355 20.2035 13.2842 19.9631 12.9429 19.7135C12.9359 19.7085 12.9289 19.7034 12.9218 19.6982C12.8041 19.6123 12.6881 19.5243 12.5725 19.4357C12.561 19.427 12.5495 19.4182 12.538 19.4094C12.434 19.3297 12.331 19.2486 12.2296 19.1657C12.1896 19.1331 12.1491 19.101 12.1083 19.0693C12.0582 19.0304 12.0097 18.9896 11.9617 18.948C11.9297 18.9204 11.8975 18.8933 11.8647 18.8668C11.812 18.824 11.761 18.7796 11.7099 18.735C11.6756 18.7052 11.6411 18.6758 11.6066 18.6462C11.5614 18.6076 11.5167 18.5682 11.4727 18.5283C11.4536 18.5111 11.4344 18.4942 11.4151 18.4772C11.379 18.4458 11.3434 18.4138 11.3079 18.3816C11.2886 18.3643 11.2691 18.3473 11.2495 18.3302C11.2038 18.2904 11.1592 18.2492 11.1147 18.2081C11.0961 18.1911 11.0775 18.174 11.0589 18.157C11.0404 18.1401 11.022 18.1232 11.0036 18.1062C10.9936 18.0971 10.9836 18.0879 10.9736 18.0787C10.9209 18.0305 10.8685 17.9823 10.8185 17.9313C10.8032 17.9163 10.7873 17.9025 10.7709 17.8886C10.728 17.8517 10.6886 17.8114 10.649 17.771C10.6223 17.7438 10.5951 17.7177 10.566 17.693C10.5244 17.6567 10.4852 17.6181 10.4462 17.579C10.4388 17.5717 10.4315 17.5643 10.4239 17.5568C10.4085 17.5413 10.3931 17.5259 10.3777 17.5105C10.3543 17.4869 10.3309 17.4636 10.3073 17.4402C10.2923 17.4251 10.2772 17.41 10.2621 17.3949C10.2552 17.388 10.2483 17.3811 10.2411 17.374C10.2036 17.3363 10.1676 17.2978 10.1331 17.2574C10.1095 17.2305 10.084 17.2057 10.0585 17.1807C10.0199 17.1426 9.98287 17.1041 9.94769 17.0627C9.93287 17.0458 9.91722 17.0299 9.90111 17.014C9.87981 16.9932 9.85972 16.9718 9.84027 16.9492C9.80759 16.9112 9.77333 16.8746 9.73907 16.838C9.70018 16.7966 9.66156 16.7551 9.62443 16.7119C9.60628 16.691 9.58758 16.6705 9.56887 16.65C9.54008 16.6181 9.51248 16.5856 9.48554 16.5522C9.45553 16.515 9.42433 16.4795 9.39183 16.4445C9.35257 16.4023 9.31562 16.3589 9.27951 16.3141C9.25423 16.2829 9.22812 16.2526 9.202 16.2222C9.16265 16.1765 9.12394 16.1304 9.08589 16.0837C9.06829 16.0619 9.05052 16.0403 9.03264 16.0188C8.97755 15.9521 8.92282 15.8853 8.86967 15.817C8.83727 15.7755 8.80412 15.7346 8.77078 15.6938C8.71883 15.6301 8.66846 15.5653 8.61864 15.4998C8.60429 15.4813 8.59003 15.4628 8.57577 15.4443C8.5592 15.4227 8.54262 15.4011 8.52605 15.3795C8.5179 15.3689 8.5179 15.3689 8.50956 15.3581C8.42113 15.2427 8.33391 15.1265 8.24826 15.009C8.24326 15.0024 8.23835 14.9956 8.23325 14.9887C8.19788 14.9401 8.1627 14.8913 8.12788 14.8423C8.12269 14.8351 8.11751 14.8279 8.11223 14.8205C8.02269 14.6946 7.93731 14.5662 7.85236 14.4372C7.84448 14.4252 7.84448 14.4252 7.83644 14.4131C7.73521 14.2595 7.6363 14.1043 7.541 13.947C7.53607 13.9388 7.53607 13.9388 7.53105 13.9305C7.37369 13.6706 7.2246 13.4066 7.08563 13.1365C7.06986 13.106 7.05373 13.0758 7.03755 13.0456C6.68227 12.3801 6.40269 11.6554 6.12586 9.88528C6.12584 9.87917 6.12581 9.87315 6.12579 9.86685C6.12565 9.83462 6.12556 9.80248 6.12552 9.77026C6.12548 9.74433 6.12535 9.7184 6.12514 9.69256C6.11865 8.88418 6.34191 8.04894 6.83148 7.39665C6.83546 7.39129 6.83944 7.38593 6.84354 7.38041C6.96733 7.21416 7.10746 7.06341 7.25404 6.91726C7.27315 6.8982 7.29221 6.87909 7.31127 6.85997C7.32364 6.84761 7.33602 6.83524 7.3484 6.82287C7.35397 6.81728 7.35955 6.81169 7.3653 6.80592C7.40501 6.76641 7.44639 6.72927 7.48891 6.69282C7.49761 6.68537 7.49761 6.68537 7.50647 6.67776C7.65129 6.55397 7.81041 6.44692 7.97968 6.35943C7.98685 6.35572 7.99398 6.352 8.00139 6.34816C8.29196 6.19879 8.60549 6.1235 8.93171 6.12502Z" fill="black"/>
<path d="M13.9533 1.75007C13.9992 1.75016 14.045 1.75011 14.0909 1.75002C14.3151 1.74966 14.5383 1.75385 14.7621 1.76738C14.7718 1.76796 14.7814 1.76854 14.7915 1.76913C14.8461 1.77248 14.9007 1.77642 14.9553 1.78078C14.9633 1.78141 14.9714 1.78204 14.9797 1.7827C15.8548 1.85196 16.7212 2.01215 19.1083 2.8544C19.117 2.85834 19.1256 2.86227 19.1346 2.86633C19.2636 2.92507 19.3909 2.98728 19.5177 3.05056C19.525 3.0542 19.5323 3.05784 19.5398 3.06159C19.6407 3.11178 19.7399 3.16425 19.8385 3.21867C19.8666 3.23411 19.8948 3.24933 19.923 3.26455C20.0201 3.31692 20.1153 3.37227 20.2102 3.42853C20.2147 3.4312 20.2192 3.43388 20.2238 3.43664C20.2531 3.45397 20.2823 3.47136 20.3114 3.48879C20.3208 3.49436 20.3301 3.49992 20.3395 3.50548C20.4812 3.58994 20.6194 3.68019 20.7571 3.77096C20.7784 3.78503 20.7998 3.79905 20.8212 3.81307C20.9047 3.86797 20.9865 3.9247 21.0671 3.9838C21.0935 4.00301 21.1203 4.02173 21.1471 4.04047C21.2598 4.11984 21.3699 4.20252 21.4784 4.28765C21.4962 4.3016 21.5141 4.31549 21.532 4.32935C21.5946 4.37784 21.6566 4.42677 21.7176 4.47728C21.7313 4.48845 21.745 4.49961 21.7587 4.51077C21.7942 4.53981 21.8293 4.56936 21.8642 4.59909C21.8906 4.62152 21.9173 4.64353 21.9443 4.66531C21.9807 4.69496 22.0155 4.72613 22.05 4.75792C22.0715 4.77757 22.0933 4.79672 22.1153 4.81581C22.1401 4.83751 22.1644 4.85964 22.1888 4.88171C22.2043 4.89556 22.2198 4.90918 22.2356 4.92271C22.2797 4.96123 22.3222 5.00166 22.3649 5.04183C22.3784 5.05444 22.392 5.06695 22.4056 5.07941C22.4977 5.16392 22.5856 5.25258 22.6738 5.34103C22.6965 5.36375 22.7192 5.38644 22.7419 5.40913C22.7597 5.42683 22.7773 5.44455 22.795 5.46228C22.8034 5.47066 22.8118 5.47902 22.8202 5.48738C22.8612 5.52835 22.9018 5.56942 22.9393 5.61361C22.9522 5.6286 22.966 5.64244 22.9802 5.65616C23.0042 5.67992 23.0266 5.70454 23.0487 5.73017C23.0688 5.7531 23.0895 5.77543 23.1103 5.79778C23.144 5.83427 23.1774 5.87103 23.2097 5.90878C23.213 5.91249 23.2161 5.91621 23.2194 5.92003C23.2387 5.94255 23.258 5.96508 23.2773 5.98764C23.2928 6.00583 23.3085 6.024 23.3241 6.04212C23.3841 6.1116 23.4424 6.18223 23.5005 6.25326C23.5049 6.25858 23.5092 6.26389 23.5137 6.26937C23.5621 6.32851 23.6099 6.38801 23.6562 6.44882C23.6712 6.46831 23.6861 6.48766 23.7013 6.50696C23.766 6.58966 23.8289 6.67355 23.8908 6.7585C23.8949 6.76422 23.8991 6.76994 23.9034 6.77583C23.9325 6.81585 23.9615 6.85602 23.9902 6.89629C23.9941 6.9016 23.9978 6.90692 24.0018 6.91239C24.4129 7.48722 24.7686 8.10379 25.2375 9.10095C25.2398 9.10627 25.2421 9.11159 25.2445 9.11707C25.5224 9.75688 25.7437 10.419 26.1251 12.209C26.1262 12.2162 26.1272 12.2235 26.1283 12.2309C26.1658 12.4894 26.1945 12.7489 26.2162 13.0092C26.2167 13.0147 26.2172 13.0202 26.2176 13.0259C26.242 13.3264 26.2504 13.6264 26.25 13.9278C26.2499 13.9552 26.2499 13.9826 26.2499 14.01C26.2496 14.2673 26.2474 14.5235 26.2265 14.78C26.2244 14.8053 26.2225 14.8307 26.2206 14.8559C26.1903 15.2494 26.1403 15.6403 26.0715 16.0288C26.0702 16.0362 26.0689 16.0436 26.0676 16.0513C25.9332 16.8074 25.7235 17.5548 24.7401 19.7722C24.7338 19.7836 24.7338 19.7836 24.7273 19.7952C24.6646 19.9086 24.6002 20.0208 24.5335 20.132C24.5285 20.1402 24.5236 20.1485 24.5184 20.157C24.3235 20.482 24.1143 20.7983 23.8908 21.1042C23.8843 21.113 23.8843 21.113 23.8777 21.1221C23.8143 21.2088 23.7498 21.2947 23.6842 21.3797C23.6798 21.3853 23.6754 21.391 23.671 21.3968C23.6112 21.4743 23.5505 21.5509 23.4885 21.6266C23.4786 21.6386 23.4688 21.6507 23.459 21.6628C23.4251 21.7046 23.3906 21.7457 23.3558 21.7867C23.3334 21.8131 23.3114 21.8398 23.2896 21.8668C23.2604 21.9027 23.2295 21.9369 23.1981 21.971C23.1791 21.9922 23.1611 22.014 23.1432 22.0362C23.12 22.065 23.096 22.0915 23.0694 22.1172C23.0563 22.1303 23.0443 22.1437 23.0323 22.1577C22.997 22.1985 22.9601 22.238 22.9233 22.2776C22.9117 22.2902 22.9001 22.303 22.8884 22.3157C22.8453 22.363 22.8013 22.4092 22.7555 22.454C22.7347 22.4743 22.7151 22.4952 22.6962 22.5173C22.6608 22.5583 22.6224 22.5962 22.5841 22.6344C22.5713 22.647 22.5586 22.6598 22.5459 22.6725C22.5075 22.711 22.4689 22.7486 22.4276 22.784C22.404 22.8047 22.3823 22.8271 22.3604 22.8495C22.3285 22.8821 22.2959 22.913 22.2614 22.9428C22.2337 22.967 22.2072 22.9925 22.1806 23.0179C22.1437 23.053 22.1064 23.0875 22.0679 23.1209C22.0509 23.1357 22.0342 23.151 22.0175 23.1662C21.9841 23.1965 21.9495 23.2249 21.9144 23.2533C21.8942 23.27 21.8747 23.2873 21.8554 23.305C21.8228 23.3346 21.7893 23.3625 21.7551 23.3901C21.7313 23.4096 21.708 23.4295 21.6847 23.4495C21.6419 23.4859 21.598 23.5208 21.5537 23.5552C21.5308 23.5731 21.5083 23.5912 21.4857 23.6094C21.4309 23.6538 21.375 23.6965 21.3184 23.7386C21.2848 23.7636 21.2513 23.7889 21.2181 23.8144C21.1487 23.868 21.079 23.9202 21.006 23.9689C20.9694 23.9933 20.9339 24.019 20.8984 24.0453C20.8382 24.0898 20.7763 24.1315 20.7138 24.1729C20.7026 24.1803 20.6914 24.1877 20.6803 24.1951C20.6034 24.2461 20.5265 24.2969 20.4489 24.3468C20.4378 24.3539 20.4267 24.361 20.4157 24.3682C20.2932 24.4473 20.1675 24.521 20.0419 24.5949C20.0345 24.5992 20.0273 24.6035 20.0197 24.6079C19.9788 24.6319 19.9377 24.6556 19.8965 24.6791C19.8862 24.6849 19.8862 24.6849 19.8758 24.6908C19.5489 24.8768 19.2136 25.0506 18.8693 25.2022C18.8456 25.2127 18.8219 25.2233 18.7982 25.2339C18.0946 25.5509 17.3539 25.7926 14.2213 26.2496C14.2037 26.2497 14.186 26.2497 14.1683 26.2497C14.1316 26.2498 14.0948 26.2498 14.058 26.2498C14.021 26.2498 13.984 26.2498 13.9471 26.2499C13.7133 26.2506 13.4804 26.2473 13.247 26.2331C13.2371 26.2325 13.2274 26.2318 13.2172 26.2312C13.1614 26.2277 13.1057 26.2237 13.05 26.2191C13.0418 26.2185 13.0336 26.2178 13.0252 26.2172C12.218 26.1531 11.418 26.0121 9.97967 25.5824C9.97164 25.5796 9.97164 25.5796 9.96345 25.5768C9.37104 25.3747 8.78394 25.1228 8.17807 24.7894C8.15666 24.7775 8.13513 24.766 8.11356 24.7544C8.10586 24.7503 8.09817 24.7462 8.09024 24.7419C8.07462 24.7335 8.05896 24.7253 8.04324 24.7171C7.99771 24.6931 7.95756 24.6675 7.91831 24.634C7.85413 24.5908 7.85413 24.5908 7.77898 24.5818C7.74757 24.5888 7.71722 24.5976 7.68653 24.6072C7.67502 24.6106 7.66352 24.6139 7.652 24.6172C7.62829 24.6241 7.60463 24.631 7.58099 24.6381C7.54889 24.6478 7.51665 24.6568 7.48432 24.6657C7.47934 24.667 7.47435 24.6684 7.4692 24.6698C7.45914 24.6726 7.44908 24.6753 7.43902 24.678C7.41316 24.6851 7.38732 24.6923 7.3615 24.6996C7.35081 24.7026 7.34011 24.7056 7.32942 24.7086C7.324 24.71 7.31859 24.7115 7.31301 24.7132C7.26517 24.7265 7.21731 24.7398 7.16945 24.7531C7.15683 24.7566 7.14421 24.7602 7.13158 24.7637C6.98468 24.8046 6.83769 24.8452 6.69068 24.8857C6.66965 24.8915 6.64862 24.8973 6.62758 24.9031C6.55657 24.9227 6.48557 24.9423 6.41455 24.9619C6.2833 24.9981 6.15207 25.0343 6.02083 25.0705C6.00707 25.0742 5.99332 25.0781 5.97957 25.0818C5.75448 25.144 5.52942 25.2062 5.30437 25.2685C5.12623 25.3178 4.94808 25.3671 4.76991 25.4163C4.76279 25.4183 4.75569 25.4203 4.74836 25.4222C4.67139 25.4435 4.59441 25.4647 4.51742 25.4859C4.49044 25.4934 4.46346 25.5008 4.43648 25.5083C4.42989 25.5101 4.4233 25.5119 4.41652 25.5137C4.33186 25.5371 4.24726 25.5606 4.16268 25.5842C4.11976 25.5962 4.07683 25.6081 4.03389 25.6201C4.00556 25.6279 3.97724 25.6358 3.94893 25.6438C3.79241 25.6879 3.6446 25.7249 3.48131 25.7235C3.47554 25.7235 3.46978 25.7235 3.46383 25.7234C3.36586 25.7229 3.27214 25.7151 3.17715 25.6896C3.16838 25.6872 3.16838 25.6872 3.15943 25.6848C2.90975 25.6154 2.67544 25.4604 2.51909 25.2532C2.51019 25.2418 2.51019 25.2418 2.5011 25.2303C2.35508 25.0397 2.26649 24.7971 2.25893 24.5566C2.25862 24.548 2.25832 24.5395 2.258 24.5307C2.25608 24.424 2.26686 24.3205 2.2922 24.217C2.29415 24.2089 2.29611 24.2008 2.29812 24.1925C2.33126 24.0579 2.36799 23.9241 2.40406 23.7902C2.41511 23.7492 2.42613 23.7081 2.43715 23.6671C2.45545 23.599 2.47376 23.5309 2.49209 23.4628C2.51742 23.3686 2.54271 23.2745 2.568 23.1803C2.59959 23.0626 2.63121 22.945 2.66283 22.8273C2.69463 22.7091 2.72641 22.5909 2.75818 22.4726C2.76016 22.4652 2.76213 22.4579 2.76417 22.4503C2.77414 22.4133 2.78411 22.3761 2.79408 22.339C2.81201 22.2723 2.82995 22.2055 2.84789 22.1388C2.85785 22.1017 2.86781 22.0646 2.87777 22.0275C2.88176 22.0127 2.88575 21.9979 2.88973 21.983C2.89171 21.9757 2.89367 21.9683 2.89571 21.9608C2.90169 21.9386 2.90766 21.9163 2.91365 21.894C2.91562 21.8867 2.91759 21.8793 2.91962 21.8718C2.92361 21.857 2.92759 21.8421 2.93157 21.8273C2.94154 21.7902 2.95151 21.7531 2.96148 21.716C2.97936 21.6494 2.99724 21.5829 3.01512 21.5164C3.02502 21.4796 3.0349 21.4428 3.0448 21.4059C3.04676 21.3987 3.04872 21.3913 3.05074 21.3838C3.07757 21.284 3.10439 21.1842 3.1312 21.0843C3.13973 21.0526 3.14825 21.0208 3.15678 20.9891C3.161 20.9734 3.16522 20.9576 3.16943 20.942C3.17151 20.9342 3.17358 20.9266 3.17572 20.9186C3.18803 20.8728 3.20031 20.827 3.2126 20.7811C3.24759 20.6507 3.2826 20.5202 3.31865 20.39C3.32353 20.3723 3.32839 20.3547 3.33327 20.337C3.34167 20.3065 3.35019 20.2761 3.3588 20.2456C3.36237 20.2328 3.36592 20.2199 3.36947 20.2071C3.37107 20.2016 3.37268 20.196 3.37433 20.1903C3.38551 20.1492 3.38476 20.1202 3.36698 20.0814C3.36316 20.0749 3.35935 20.0682 3.35542 20.0614C3.35113 20.0539 3.34683 20.0464 3.3424 20.0386C3.33541 20.0266 3.33541 20.0266 3.32828 20.0142C3.31841 19.9969 3.30856 19.9796 3.29872 19.9623C3.29372 19.9535 3.28872 19.9447 3.28357 19.9357C3.20332 19.7941 3.1287 19.6492 3.05472 19.5043C3.05038 19.4957 3.04604 19.4872 3.04156 19.4785C2.78754 18.979 2.57618 18.4577 2.39666 17.9273C2.39449 17.9209 2.39231 17.9144 2.39007 17.9078C2.12906 17.1364 1.94828 16.3375 1.7862 14.8959C1.78454 14.8732 1.78278 14.8504 1.78101 14.8277C1.73892 14.2761 1.73984 13.7093 1.78277 13.1577C1.78454 13.1349 1.78621 13.112 1.78787 13.0891C1.82401 12.5935 1.88996 12.0999 1.98346 11.6119C1.98481 11.6048 1.98615 11.5978 1.98753 11.5905C2.06388 11.1925 2.16309 10.7974 2.28189 10.41C2.28408 10.4028 2.28628 10.3956 2.28854 10.3883C2.42628 9.93945 2.58803 9.49913 2.77926 9.07033C2.78291 9.06213 2.78291 9.06213 2.78663 9.05377C2.85526 8.89969 2.92661 8.74703 3.00116 8.59572C3.00396 8.59004 3.00675 8.58436 3.00963 8.57851C3.07938 8.43696 3.14933 8.29567 3.22641 8.15793C3.24013 8.13325 3.25363 8.10846 3.26712 8.08367C3.32959 7.96903 3.3945 7.85628 3.46241 7.74475C3.47485 7.72424 3.48715 7.70366 3.4994 7.68303C3.55585 7.58794 3.61469 7.49452 3.67452 7.40152C3.68051 7.39218 3.68051 7.39218 3.68661 7.38265C3.82396 7.16829 3.96837 6.95813 4.12015 6.75376C4.1339 6.73517 4.14758 6.71652 4.16123 6.69785C4.21126 6.62946 4.26207 6.56192 4.31485 6.49563C4.32508 6.48274 4.33522 6.46978 4.34535 6.45681C4.39522 6.39292 4.44605 6.32985 4.49731 6.26707C4.50722 6.25492 4.51709 6.24275 4.52696 6.23056C4.56235 6.18696 4.5986 6.14418 4.63527 6.10165C4.65871 6.07441 4.68163 6.04683 4.70418 6.01882C4.73555 5.98014 4.76886 5.94359 4.8027 5.90708C4.8231 5.88496 4.84293 5.86243 4.86266 5.83971C4.91695 5.77753 4.97294 5.71683 5.0289 5.65616C5.03526 5.64927 5.03526 5.64927 5.04174 5.64224C5.09352 5.58617 5.14568 5.53078 5.20033 5.47749C5.2155 5.46195 5.2296 5.44635 5.2437 5.42986C5.27825 5.39 5.31557 5.35293 5.35291 5.31572C5.36509 5.30358 5.37722 5.29139 5.38937 5.2792C5.42681 5.24171 5.46461 5.20511 5.5049 5.17065C5.52848 5.14992 5.55026 5.12744 5.57219 5.105C5.60405 5.0724 5.63665 5.0415 5.67115 5.0117C5.69882 4.98743 5.72535 4.96195 5.752 4.93659C5.81004 4.88138 5.86992 4.82873 5.93087 4.77679C5.96268 4.74962 5.99416 4.72219 6.02508 4.69402C6.05712 4.66494 6.09022 4.6375 6.12384 4.61029C6.14764 4.59084 6.17101 4.57093 6.19438 4.55096C6.23255 4.51843 6.27152 4.48712 6.31109 4.45632C6.34528 4.42966 6.37892 4.40237 6.41246 4.37489C6.47559 4.32333 6.54014 4.27378 6.60519 4.22466C6.61127 4.22006 6.61735 4.21546 6.62361 4.21072C6.81558 4.06554 7.01207 3.92719 7.2116 3.79263C7.21878 3.78779 7.22597 3.78293 7.23337 3.77794C7.33431 3.7099 7.43558 3.64282 7.53968 3.57968C7.55979 3.56747 7.57985 3.55518 7.59989 3.54286C8.03121 3.27787 8.47835 3.03381 8.94109 2.82804C8.97369 2.81353 9.00617 2.79878 9.0386 2.78386C9.26621 2.67958 9.49952 2.58659 9.73451 2.50033C9.74537 2.49634 9.75624 2.49236 9.76711 2.48836C10.5395 2.20386 11.3392 2.00161 13.0275 1.78296C13.0332 1.78248 13.039 1.782 13.0449 1.7815C13.3475 1.75723 13.6499 1.74949 13.9533 1.75007ZM13.1179 2.50035C13.1056 2.5013 13.1056 2.5013 13.093 2.50227C12.6429 2.53728 12.1948 2.59558 11.7517 2.68214C11.7323 2.68593 11.7128 2.68967 11.6935 2.69341C11.013 2.82523 10.3408 3.02613 9.58178 3.33667C9.57688 3.33871 9.57198 3.34074 9.56701 3.34283C9.33327 3.44043 9.10376 3.54701 8.87657 3.65891C8.86316 3.66551 8.84975 3.6721 8.83632 3.67867C8.73409 3.72888 8.63345 3.78144 8.53384 3.83666C8.50812 3.85088 8.48233 3.86499 8.45655 3.87908C8.34316 3.94113 8.23093 4.00476 8.12026 4.07156C8.11315 4.07584 8.10603 4.08012 8.0987 4.08453C7.8423 4.23889 7.59072 4.40244 7.34742 4.5768C7.34174 4.58086 7.33606 4.58492 7.33021 4.58911C7.28989 4.61797 7.24974 4.64709 7.20968 4.67631C7.20362 4.68074 7.19755 4.68516 7.19129 4.68972C7.11641 4.74436 7.04238 4.79983 6.96988 4.8576C6.957 4.86783 6.94405 4.87799 6.93108 4.88811C6.86723 4.93799 6.8042 4.98884 6.74146 5.04011C6.72921 5.05012 6.71693 5.06009 6.70466 5.07007C6.65049 5.11418 6.59714 5.1592 6.54397 5.20451C6.53948 5.20834 6.53498 5.21217 6.53035 5.2161C6.47872 5.26006 6.42751 5.30435 6.37731 5.34993C6.36191 5.36384 6.34635 5.37752 6.33068 5.39111C6.30073 5.41719 6.2715 5.44403 6.24229 5.47093C6.21726 5.49398 6.19202 5.51677 6.16664 5.53942C6.14053 5.56284 6.11552 5.58696 6.09098 5.61202C6.07784 5.62492 6.0643 5.63683 6.05027 5.64874C6.00885 5.68479 5.97031 5.72373 5.93156 5.76259C5.92354 5.77061 5.91552 5.77862 5.9075 5.78664C5.89079 5.80334 5.87409 5.82007 5.85739 5.8368C5.83616 5.85809 5.81488 5.87935 5.7936 5.9006C5.77706 5.91711 5.76054 5.93364 5.74403 5.95019C5.7362 5.95803 5.72836 5.96586 5.72052 5.97369C5.6809 6.01326 5.64191 6.05306 5.60556 6.0957C5.59262 6.11075 5.5788 6.12465 5.56453 6.13843C5.54046 6.1622 5.51806 6.18681 5.49603 6.21244C5.47592 6.23537 5.4552 6.2577 5.43445 6.28005C5.40067 6.31654 5.36735 6.3533 5.33498 6.39105C5.33179 6.39476 5.3286 6.39848 5.32531 6.4023C5.30603 6.42476 5.28678 6.44723 5.26755 6.46973C5.25148 6.48852 5.23538 6.50727 5.21924 6.526C5.17937 6.57233 5.13989 6.61889 5.10139 6.66637C5.08671 6.6844 5.07194 6.70235 5.05709 6.72025C5.00658 6.78122 4.95711 6.84266 4.90921 6.9057C4.8976 6.92085 4.88585 6.93589 4.87408 6.95092C4.80928 7.03362 4.7464 7.11755 4.68457 7.20249C4.67843 7.21089 4.67843 7.21089 4.67218 7.21946C4.50405 7.4498 4.34429 7.68681 4.19485 7.92972C4.19007 7.93749 4.18529 7.94526 4.18036 7.95326C4.10133 8.08193 4.02442 8.21171 3.94999 8.3431C3.94292 8.35557 3.94292 8.35557 3.93571 8.36829C3.86988 8.48478 3.80718 8.6026 3.7462 8.72167C3.72855 8.75613 3.71063 8.79042 3.69228 8.8245C3.6476 8.90755 3.60736 8.9926 3.5674 9.07799C3.56265 9.08808 3.55791 9.09817 3.55317 9.10825C3.25056 9.75244 3.01102 10.4244 2.51171 13.0747C2.51123 13.0805 2.51075 13.0862 2.51026 13.092C2.4868 13.3818 2.47816 13.6723 2.47884 13.963C2.47893 14.0008 2.47888 14.0386 2.47879 14.0764C2.47825 14.3497 2.4872 14.6225 2.50953 14.8949C2.51016 14.9028 2.51079 14.9106 2.51144 14.9187C2.57328 15.6844 2.7079 16.4435 3.49088 18.7387C3.49446 18.7466 3.49804 18.7545 3.50173 18.7626C3.63265 19.0513 3.77153 19.3375 3.9297 19.6122C3.95141 19.6502 3.97253 19.6887 3.99371 19.7271C4.06434 19.8622 4.06434 19.8622 4.14762 19.9894C4.16833 20.0357 4.14576 20.096 4.13285 20.1431C4.13038 20.1523 4.13038 20.1523 4.12788 20.1616C4.12243 20.1819 4.11692 20.2022 4.1114 20.2225C4.10747 20.2371 4.10355 20.2516 4.09963 20.2662C4.08902 20.3057 4.07834 20.3452 4.06765 20.3847C4.05633 20.4265 4.04507 20.4683 4.03381 20.5102C4.0151 20.5796 3.99637 20.6491 3.97761 20.7185C3.95198 20.8135 3.92644 20.9084 3.90094 21.0034C3.89699 21.0181 3.89305 21.0328 3.8891 21.0475C3.88321 21.0694 3.87734 21.0914 3.87145 21.1133C3.84974 21.1941 3.828 21.275 3.80625 21.3559C3.79833 21.3854 3.7904 21.4149 3.78248 21.4443C3.78052 21.4516 3.77857 21.4589 3.77654 21.4664C3.75465 21.5479 3.73278 21.6292 3.7109 21.7107C3.70893 21.718 3.70695 21.7254 3.70492 21.733C3.69495 21.77 3.68498 21.8071 3.67501 21.8443C3.65708 21.911 3.63913 21.9778 3.6212 22.0445C3.61124 22.0816 3.60127 22.1187 3.59131 22.1557C3.58732 22.1706 3.58334 22.1854 3.57936 22.2002C3.57738 22.2076 3.57541 22.2149 3.57337 22.2225C3.5674 22.2448 3.56142 22.267 3.55545 22.2892C3.55248 22.3003 3.55248 22.3003 3.54946 22.3115C3.54548 22.3263 3.5415 22.3412 3.53751 22.356C3.52755 22.3931 3.51758 22.4302 3.50761 22.4672C3.4897 22.5339 3.47178 22.6006 3.45387 22.6673C3.44393 22.7042 3.43399 22.7412 3.42405 22.7783C3.42207 22.7855 3.42011 22.7929 3.41808 22.8005C3.39186 22.898 3.36566 22.9955 3.33945 23.0931C3.3252 23.1462 3.31095 23.1992 3.29669 23.2523C3.28666 23.2896 3.27662 23.327 3.26659 23.3643C3.22583 23.5161 3.18503 23.6678 3.14411 23.8195C3.13847 23.8405 3.13283 23.8614 3.12719 23.8823C3.12536 23.8891 3.12353 23.8958 3.12165 23.9029C3.11802 23.9163 3.11438 23.9298 3.11075 23.9433C3.10208 23.9754 3.09341 24.0076 3.08472 24.0397C3.06684 24.1059 3.04903 24.1721 3.03141 24.2383C3.02679 24.2557 3.02214 24.2731 3.01747 24.2904C2.98883 24.3946 2.98883 24.3946 2.98156 24.502C2.98169 24.5087 2.98182 24.5153 2.98195 24.5222C2.98712 24.6642 3.0524 24.7821 3.1542 24.8781C3.26191 24.9698 3.38642 25.0103 3.5277 25.0021C3.55407 24.9997 3.57949 24.9937 3.60511 24.9873C3.61071 24.986 3.61632 24.9846 3.62209 24.9832C3.68423 24.9679 3.74592 24.9509 3.80757 24.9338C3.82031 24.9303 3.83307 24.9267 3.84583 24.9232C3.88021 24.9137 3.91459 24.9042 3.94897 24.8946C3.98576 24.8844 4.02257 24.8742 4.05937 24.864C4.12154 24.8468 4.1837 24.8296 4.24586 24.8124C4.33746 24.787 4.42907 24.7616 4.52068 24.7363C4.54307 24.7301 4.56545 24.7239 4.58784 24.7177C4.60276 24.7136 4.61768 24.7095 4.6326 24.7053C4.68525 24.6907 4.73791 24.6762 4.79057 24.6616C4.99226 24.6058 5.19398 24.55 5.39572 24.4944C5.40254 24.4925 5.40937 24.4906 5.4164 24.4886C5.52618 24.4584 5.63596 24.4281 5.74575 24.3978C5.84875 24.3694 5.95174 24.341 6.05473 24.3126C6.06155 24.3107 6.06838 24.3088 6.07541 24.3069C6.31546 24.2406 6.55546 24.1742 6.79545 24.1078C6.96355 24.0613 7.13168 24.0148 7.29983 23.9684C7.30754 23.9662 7.31525 23.9641 7.32319 23.962C7.39734 23.9415 7.47148 23.921 7.54563 23.9006C7.5725 23.8932 7.59938 23.8858 7.62625 23.8784C7.63856 23.875 7.65088 23.8716 7.6632 23.8682C7.67466 23.865 7.68614 23.8619 7.69761 23.8587C7.70842 23.8557 7.71923 23.8528 7.73004 23.8498C7.75555 23.8428 7.78093 23.8355 7.80621 23.8277C7.81564 23.8248 7.82507 23.822 7.8348 23.819C7.84302 23.8164 7.85125 23.8138 7.85973 23.8111C7.90535 23.8019 7.93624 23.8159 7.97499 23.8392C7.97931 23.8418 7.98362 23.8443 7.98807 23.847C7.99736 23.8525 8.00662 23.8581 8.01587 23.8637C8.03062 23.8726 8.04542 23.8814 8.06023 23.8902C8.08063 23.9023 8.10101 23.9144 8.12138 23.9266C8.33623 24.0547 8.55533 24.1752 8.77832 24.2885C8.79426 24.2966 8.81019 24.3048 8.82613 24.3129C8.98934 24.396 9.15395 24.4752 9.3216 24.549C9.32692 24.5513 9.33223 24.5536 9.33771 24.556C9.95657 24.8285 10.5974 25.0449 13.1064 25.5001C13.1175 25.5009 13.1175 25.5009 13.1288 25.5019C13.4069 25.5238 13.6853 25.5317 13.9642 25.5312C13.9873 25.5312 14.0104 25.5312 14.0336 25.5311C14.277 25.5309 14.5193 25.5258 14.7621 25.5075C14.7848 25.5058 14.8075 25.5042 14.8302 25.5026C15.6401 25.4441 16.4435 25.2888 18.3126 24.6561C18.3175 24.654 18.3225 24.6518 18.3276 24.6497C18.4719 24.5885 18.6146 24.5241 18.7564 24.4571C18.7642 24.4533 18.772 24.4497 18.7801 24.4458C18.9741 24.3541 19.1675 24.2598 19.355 24.155C19.3782 24.142 19.4016 24.1292 19.4251 24.1164C19.548 24.0487 19.6691 23.9783 19.7894 23.9059C19.7969 23.9013 19.8046 23.8967 19.8124 23.8921C19.9787 23.7922 20.1413 23.6872 20.302 23.5787C20.3079 23.5747 20.3138 23.5707 20.3199 23.5666C20.404 23.5098 20.4872 23.4518 20.5699 23.393C20.5766 23.3882 20.5834 23.3834 20.5904 23.3784C20.6714 23.3208 20.7507 23.261 20.8297 23.2005C20.8586 23.1784 20.8876 23.1565 20.9169 23.1348C20.9684 23.0966 21.0186 23.057 21.0683 23.0163C21.1009 22.9895 21.1339 22.9634 21.1672 22.9376C21.2106 22.9037 21.2523 22.8682 21.2937 22.8319C21.3217 22.8073 21.35 22.7834 21.379 22.76C21.4147 22.7312 21.4484 22.7006 21.4822 22.6695C21.5034 22.6504 21.5252 22.6324 21.5474 22.6146C21.5762 22.5913 21.6028 22.5672 21.6285 22.5406C21.6412 22.5279 21.6543 22.5162 21.6679 22.5045C21.7079 22.4699 21.7463 22.4336 21.7849 22.3973C21.8043 22.3791 21.8238 22.361 21.8433 22.3429C21.9309 22.2619 22.0153 22.1778 22.0995 22.0934C22.1197 22.073 22.1401 22.0527 22.1604 22.0324C22.1764 22.0165 22.1923 22.0006 22.2081 21.9847C22.2156 21.9772 22.2231 21.9697 22.2306 21.9622C22.2692 21.9237 22.3068 21.885 22.3422 21.8436C22.3552 21.8286 22.369 21.8146 22.3833 21.8008C22.4074 21.777 22.4298 21.7524 22.4518 21.7268C22.472 21.7038 22.4927 21.6815 22.5134 21.6592C22.5663 21.602 22.6172 21.5433 22.6678 21.4841C22.6927 21.4548 22.7179 21.4258 22.7431 21.3967C22.7874 21.3459 22.8307 21.2944 22.8731 21.242C22.8809 21.2324 22.8886 21.2228 22.8964 21.2133C22.9468 21.1516 22.9965 21.0895 23.0455 21.0267C23.0575 21.0112 23.0698 20.9956 23.082 20.9801C23.1466 20.8976 23.2093 20.8138 23.271 20.7291C23.2752 20.7232 23.2795 20.7174 23.2838 20.7113C23.4361 20.5019 23.5828 20.2888 23.7224 20.0707C23.7261 20.065 23.7298 20.0592 23.7335 20.0534C23.7927 19.9606 23.8501 19.8668 23.9061 19.7722C23.911 19.7638 23.9159 19.7556 23.9209 19.7471C24.0298 19.5633 24.1344 19.3774 24.2323 19.1875C24.2454 19.1622 24.2587 19.1371 24.2721 19.112C24.3542 18.9568 24.43 18.7989 24.5029 18.6392C24.507 18.6303 24.511 18.6215 24.5152 18.6124C24.8151 17.956 25.0507 17.2707 25.5195 14.518C25.5202 14.5047 25.521 14.4915 25.5217 14.4783C25.5304 14.3259 25.5297 14.1733 25.5296 14.0207C25.5296 13.9904 25.5297 13.9601 25.5298 13.9298C25.5308 13.6506 25.5219 13.3724 25.4991 13.094C25.4984 13.0861 25.4978 13.078 25.4971 13.0698C25.435 12.3006 25.2956 11.5392 24.9314 10.3105C24.9291 10.3036 24.9268 10.2968 24.9245 10.2898C24.8235 9.98783 24.707 9.6912 24.5794 9.3995C24.5754 9.39042 24.5715 9.38134 24.5674 9.37198C24.4495 9.10287 24.3245 8.8353 24.1824 8.57802C24.1657 8.54752 24.1491 8.51689 24.1327 8.48616C24.0725 8.37308 24.0097 8.26185 23.9443 8.15172C23.9372 8.13971 23.9372 8.13971 23.9299 8.12746C23.8675 8.02223 23.8038 7.9179 23.7377 7.8149C23.7326 7.80687 23.7326 7.80687 23.7273 7.79867C23.6183 7.62825 23.5055 7.46031 23.3866 7.29659C23.3722 7.27677 23.3579 7.25688 23.3437 7.23685C23.286 7.15483 23.2249 7.07539 23.1638 6.9958C23.1565 6.98626 23.1492 6.97671 23.1419 6.96716C23.1238 6.94347 23.1056 6.91987 23.0873 6.89629C23.0841 6.89218 23.081 6.88809 23.0777 6.88386C23.0012 6.78533 22.922 6.68914 22.8412 6.59419C22.8194 6.56854 22.7981 6.54258 22.777 6.5164C22.7473 6.47997 22.7161 6.44519 22.6844 6.41061C22.6691 6.39391 22.6541 6.37704 22.6392 6.35996C22.6137 6.33062 22.5877 6.30171 22.5617 6.27285C22.5503 6.26021 22.5389 6.24755 22.5276 6.23487C22.432 6.12803 22.432 6.12803 22.3315 6.02585C22.3172 6.01108 22.3038 5.99602 22.2904 5.98039C22.2618 5.94763 22.2317 5.91672 22.2009 5.88603C22.1953 5.88047 22.1898 5.8749 22.1841 5.86917C22.1725 5.8575 22.1607 5.84583 22.149 5.83418C22.1314 5.81649 22.1137 5.79876 22.096 5.78103C22.0845 5.76961 22.0731 5.75821 22.0617 5.7468C22.0565 5.74158 22.0513 5.73635 22.046 5.73097C22.0159 5.70101 21.985 5.67243 21.9528 5.64477C21.9347 5.629 21.918 5.6121 21.9013 5.59492C21.8751 5.56844 21.8484 5.54341 21.8201 5.51921C21.7944 5.49652 21.7694 5.47297 21.7444 5.44948C21.7055 5.413 21.6664 5.37694 21.6258 5.3423C21.618 5.33561 21.6102 5.32891 21.6024 5.32221C21.5889 5.31061 21.5753 5.29901 21.5618 5.28742C21.5325 5.26242 21.5035 5.23726 21.4745 5.21201C21.4236 5.16772 21.3721 5.12444 21.3197 5.08203C21.3105 5.07442 21.3011 5.06681 21.2919 5.05919C21.2339 5.01158 21.1751 4.96514 21.1153 4.91979C21.0798 4.89281 21.0449 4.86518 21.0103 4.83707C20.9584 4.79513 20.9048 4.7561 20.8505 4.71734C20.8082 4.68708 20.7664 4.65606 20.7248 4.6249C20.622 4.5486 20.5148 4.47835 20.4083 4.40737C20.3877 4.39362 20.3672 4.37984 20.3466 4.36606C20.2248 4.28475 20.1015 4.20631 19.9764 4.13041C19.9719 4.12771 19.9674 4.12501 19.9628 4.12223C19.8143 4.03219 19.6636 3.94625 19.5105 3.86427C19.489 3.85275 19.4678 3.84103 19.4465 3.82928C19.3443 3.77297 19.241 3.71932 19.1366 3.66728C19.1286 3.6633 19.1206 3.65933 19.1124 3.65523C18.9799 3.58911 18.8465 3.52555 18.7108 3.46606C18.6945 3.45885 18.6781 3.45161 18.6617 3.44436C18.4833 3.36546 18.3034 3.29155 18.1213 3.22185C18.1163 3.21996 18.1113 3.21806 18.1063 3.2161C17.4809 2.97725 16.8348 2.79678 16.1777 2.67068C16.1667 2.66858 16.1667 2.66858 16.1556 2.66643C15.74 2.58702 15.3205 2.53414 14.8988 2.50083C14.8913 2.50023 14.8839 2.49963 14.8762 2.499C14.6035 2.47727 14.3304 2.469 14.0569 2.46965C14.0201 2.46974 13.9832 2.46969 13.9464 2.4696C13.6698 2.46904 13.3936 2.47868 13.1179 2.50035Z" fill="black"/>
</g>
</g>
<defs>
<clipPath id="clip0_540_2590">
<rect width="28" height="28" fill="white"/>
</clipPath>
</defs>
</svg>
