   <svg xmlns="http://www.w3.org/2000/svg" width="26" height="26" viewBox="0 0 32 32" fill="none">
            <g clip-path="url(#clip0_4294_5307)">
              <mask id="mask0_4294_5307" style="mask-type:luminance" maskUnits="userSpaceOnUse" x="0" y="0" width="32" height="32">
                <path d="M32 0H0V32H32V0Z" fill="white"></path>
              </mask>
              <g mask="url(#mask0_4294_5307)">
                <path d="M9.56017 5.99222C9.56993 5.99224 9.57981 5.99226 9.58992 5.99229C9.73208 5.99287 9.87071 5.99561 10.0092 6.03116C10.0231 6.03466 10.0231 6.03466 10.0373 6.03824C10.5066 6.1602 10.8681 6.41866 11.1431 6.81598C11.1725 6.85832 11.2022 6.90037 11.2321 6.94243C11.2439 6.95909 11.2556 6.97575 11.2674 6.9924C11.2731 7.00066 11.279 7.0089 11.285 7.01739C11.6201 7.49213 11.6201 7.49213 11.6378 7.51712C11.6495 7.53379 11.6613 7.55045 11.673 7.56713C11.7023 7.6086 11.7316 7.65008 11.7607 7.69161C11.8208 7.77696 11.8814 7.86189 11.9426 7.9463C12.0018 8.02769 12.0589 8.11027 12.1154 8.19348C12.1648 8.26601 12.2158 8.33724 12.2674 8.40818C12.3363 8.50307 12.4033 8.59937 12.4705 8.69555C12.5009 8.73918 12.5315 8.78257 12.5622 8.82595C12.5708 8.83818 12.5708 8.83818 12.5796 8.85053C12.591 8.86675 12.6025 8.8831 12.6141 8.89933C12.6433 8.94071 12.6726 8.98222 12.7019 9.02361C12.7136 9.04031 12.7254 9.057 12.7372 9.07358C12.8547 9.2402 12.9723 9.40682 13.0899 9.57331C13.0957 9.58166 13.1016 9.58989 13.1074 9.59836C13.1193 9.61506 13.1311 9.63175 13.1428 9.64845C13.1776 9.69772 13.2126 9.7471 13.2474 9.79649C13.265 9.8213 13.2824 9.84611 13.2999 9.87103C13.3255 9.90737 13.3514 9.94358 13.3773 9.9798C13.4729 10.1137 13.5607 10.2506 13.6426 10.3935C13.6473 10.4017 13.6521 10.4099 13.6569 10.4183C13.7998 10.6648 13.9145 10.9524 13.9248 11.2401C13.9252 11.251 13.9257 11.2619 13.9262 11.2731C13.9316 11.5156 13.8653 11.747 13.749 11.9583C13.7365 11.981 13.7244 12.0039 13.7124 12.0269C13.5554 12.3217 13.3291 12.5792 13.0925 12.8127C13.0692 12.8363 13.0475 12.8604 13.0259 12.8855C12.9922 12.9249 12.9562 12.9616 12.9194 12.9979C12.883 13.0339 12.8475 13.07 12.8143 13.1089C12.7731 13.1573 12.7282 13.2012 12.6831 13.2458C12.6436 13.285 12.6065 13.3254 12.5705 13.3678C12.5435 13.3979 12.5147 13.4261 12.4858 13.4544C12.3465 13.5922 12.2434 13.7228 12.2395 13.9247C12.2395 14.1905 12.3708 14.4337 12.5138 14.65C12.5189 14.658 12.5241 14.6659 12.5295 14.674C12.6959 14.9245 12.8824 15.1604 13.0725 15.3931C13.0878 15.4118 13.103 15.4305 13.1181 15.4492C13.2153 15.5688 13.3154 15.6857 13.4189 15.7997C13.4408 15.8239 13.4623 15.8483 13.4838 15.8728C13.5237 15.9187 13.5644 15.9639 13.6052 16.0089C13.6272 16.0335 13.6488 16.0582 13.6704 16.0831C13.711 16.1298 13.753 16.1752 13.7948 16.2207C13.8248 16.2533 13.8546 16.2861 13.8836 16.3197C13.9336 16.3774 13.9855 16.4334 14.0373 16.4896C14.0637 16.5184 14.0901 16.5473 14.1165 16.5762C14.2656 16.7394 14.2656 16.7394 14.4204 16.8973C14.4404 16.9177 14.4588 16.9385 14.4772 16.9603C14.536 17.0277 14.5996 17.0903 14.6628 17.1534C14.6762 17.1669 14.6896 17.1803 14.7029 17.1937C14.7308 17.2215 14.7588 17.2494 14.7866 17.2773C14.8222 17.3128 14.8577 17.3483 14.8932 17.3838C14.9207 17.4114 14.9483 17.4389 14.9759 17.4666C14.989 17.4796 15.0021 17.4927 15.0151 17.5058C15.0786 17.5695 15.1421 17.6324 15.2106 17.6906C15.2423 17.718 15.2712 17.7478 15.3005 17.7777C15.3467 17.8246 15.3937 17.8694 15.4439 17.9121C15.4657 17.9311 15.4859 17.9511 15.5063 17.9717C15.5327 17.9988 15.5599 18.0243 15.5886 18.049C15.6368 18.0905 15.6832 18.134 15.7297 18.1775C15.7822 18.2269 15.835 18.2759 15.8898 18.323C15.9164 18.3461 15.9424 18.3698 15.9685 18.3936C16.0092 18.4304 16.0507 18.4657 16.0933 18.5001C16.1381 18.5363 16.1812 18.5736 16.2235 18.6125C16.2799 18.6645 16.3384 18.7133 16.3981 18.7614C16.4203 18.7796 16.4426 18.798 16.4647 18.8163C16.5583 18.8939 16.6521 18.9707 16.7495 19.0437C16.7639 19.0547 16.7784 19.0656 16.7928 19.0766C17.4093 19.5644 17.4093 19.5644 18.146 19.7296C18.3895 19.6868 18.5562 19.4742 18.7226 19.3073C18.7494 19.2805 18.7762 19.2537 18.8031 19.227C18.8203 19.2096 18.8376 19.1923 18.855 19.1751C18.8629 19.1672 18.8708 19.1593 18.8789 19.1512C18.9242 19.1057 18.9672 19.0588 19.0092 19.0102C19.0332 18.9828 19.0583 18.9568 19.084 18.9311C19.094 18.9212 19.1038 18.9112 19.1141 18.901C19.1242 18.891 19.1343 18.8809 19.1446 18.8705C19.1547 18.8604 19.1647 18.8503 19.1751 18.8399C19.2274 18.7877 19.2804 18.7373 19.3365 18.6892C19.3649 18.6646 19.3917 18.6385 19.4188 18.6125C19.7611 18.2949 20.2217 18.0173 20.7 18.023C21.1474 18.04 21.5765 18.2718 21.9322 18.5302C21.9494 18.5427 21.9665 18.555 21.9837 18.5674C22.0194 18.5931 22.0552 18.619 22.0908 18.6449C22.1417 18.6818 22.193 18.7181 22.2445 18.7545C22.2527 18.7602 22.2608 18.766 22.2693 18.772C22.2941 18.7894 22.3189 18.8068 22.3437 18.8242C22.455 18.9025 22.5658 18.9813 22.676 19.0611C22.7436 19.11 22.8117 19.1582 22.88 19.2062C22.9399 19.2484 22.9994 19.2912 23.0588 19.3343C23.1334 19.3885 23.2087 19.4417 23.2844 19.4944C23.3689 19.5534 23.4528 19.6132 23.5363 19.6737C23.6032 19.7223 23.6707 19.77 23.7384 19.8177C23.7986 19.86 23.8582 19.9031 23.9178 19.9464C23.9905 19.9992 24.064 20.0505 24.1383 20.1008C24.2158 20.1532 24.291 20.2077 24.3655 20.2645C24.4251 20.3096 24.4863 20.3521 24.5484 20.3939C24.6272 20.4472 24.7039 20.5025 24.7795 20.5601C24.8323 20.6001 24.886 20.6383 24.9408 20.6754C25.0447 20.7461 25.1466 20.8196 25.248 20.8937C25.255 20.8988 25.2619 20.9039 25.2691 20.9091C25.3529 20.97 25.4313 21.0342 25.5067 21.1053C25.5209 21.1185 25.5209 21.1185 25.5355 21.132C25.8135 21.3968 25.9412 21.7538 25.9888 22.1283C25.9898 22.1359 25.9907 22.1435 25.9918 22.1512C26.0136 22.35 25.949 22.5238 25.8857 22.7089C25.8614 22.7804 25.839 22.8524 25.8173 22.9247C25.7533 23.1367 25.6826 23.3441 25.5779 23.5398C25.5695 23.5552 25.5614 23.5708 25.5533 23.5863C25.236 24.1983 24.7529 24.7188 24.2015 25.1267C24.1898 25.1355 24.1898 25.1355 24.1777 25.1445C23.3834 25.7356 22.3734 25.9956 21.394 25.9896C21.3694 25.9895 21.3449 25.9894 21.3203 25.9894C21.0757 25.9885 20.8343 25.9817 20.5917 25.9497C20.5753 25.9477 20.5588 25.9457 20.5423 25.9436C20.0224 25.8791 19.5136 25.7608 19.0161 25.597C19.0049 25.5933 19.0049 25.5933 18.9935 25.5896C18.6232 25.468 18.2651 25.3206 17.91 25.1604C17.889 25.151 17.868 25.1416 17.847 25.1322C17.6487 25.0433 17.4541 24.9466 17.2597 24.8496C17.2473 24.8435 17.2348 24.8373 17.222 24.8309C17.0589 24.7497 16.8977 24.6655 16.7383 24.5772C16.7151 24.5644 16.6921 24.5517 16.6689 24.539C16.4847 24.438 16.3049 24.3305 16.1258 24.2207C16.0823 24.1942 16.0385 24.1681 15.9948 24.142C15.5332 23.8675 15.0872 23.5622 14.6538 23.2453C14.6448 23.239 14.636 23.2325 14.627 23.2258C14.4775 23.1168 14.3302 23.0051 14.1834 22.8926C14.1687 22.8815 14.1542 22.8703 14.1396 22.8592C14.0075 22.7579 13.8768 22.6551 13.7479 22.5497C13.6971 22.5083 13.6457 22.4676 13.594 22.4274C13.5304 22.3779 13.4688 22.3262 13.4077 22.2734C13.3672 22.2383 13.3263 22.2039 13.2846 22.1703C13.2177 22.1159 13.1529 22.0595 13.088 22.0029C13.0445 21.9651 13.0007 21.9277 12.9568 21.8902C12.8994 21.8411 12.8428 21.7912 12.7868 21.7405C12.7626 21.7186 12.7382 21.6971 12.7136 21.6756C12.6678 21.6357 12.6226 21.595 12.5776 21.5542C12.553 21.5323 12.5283 21.5106 12.5034 21.489C12.4453 21.4384 12.3888 21.3861 12.3322 21.3339C12.3086 21.3123 12.2849 21.2906 12.2614 21.269C12.2379 21.2476 12.2145 21.2261 12.1911 21.2045C12.1784 21.1929 12.1657 21.1813 12.153 21.1696C12.0861 21.1084 12.0195 21.0472 11.9561 20.9824C11.9367 20.9634 11.9164 20.9459 11.8956 20.9282C11.8412 20.8814 11.7911 20.8303 11.7409 20.7789C11.7069 20.7444 11.6724 20.7113 11.6355 20.6799C11.5826 20.6338 11.5329 20.5848 11.4834 20.5351C11.474 20.5259 11.4647 20.5164 11.455 20.5069C11.4355 20.4873 11.4159 20.4678 11.3964 20.4481C11.3666 20.4183 11.3369 20.3886 11.307 20.3589C11.2879 20.3397 11.2688 20.3206 11.2496 20.3014C11.2408 20.2927 11.2321 20.2839 11.2229 20.2748C11.1753 20.227 11.1296 20.1782 11.0857 20.1268C11.0558 20.0927 11.0234 20.0612 10.991 20.0294C10.942 19.9811 10.895 19.9322 10.8503 19.8796C10.8315 19.8581 10.8116 19.838 10.7912 19.8178C10.7641 19.7913 10.7386 19.7642 10.7139 19.7355C10.6724 19.6873 10.6289 19.6408 10.5854 19.5944C10.536 19.5417 10.487 19.489 10.4398 19.4342C10.4168 19.4076 10.393 19.3817 10.3693 19.3555C10.3327 19.3151 10.2977 19.2738 10.2634 19.2314C10.2253 19.1842 10.1857 19.1391 10.1444 19.0946C10.0946 19.0411 10.0477 18.986 10.0018 18.9291C9.96972 18.8896 9.93656 18.851 9.9034 18.8124C9.85343 18.7545 9.80428 18.6959 9.75595 18.6365C9.73361 18.6089 9.71103 18.5815 9.68834 18.5542C9.61838 18.4696 9.54889 18.3847 9.48139 18.298C9.44024 18.2452 9.39814 18.1934 9.35581 18.1415C9.28985 18.0606 9.22589 17.9784 9.16263 17.8953C9.1444 17.8718 9.12629 17.8482 9.10818 17.8247C9.08714 17.7973 9.06609 17.7699 9.04504 17.7424C9.03469 17.729 9.03469 17.729 9.02411 17.7153C8.91182 17.5688 8.80106 17.4213 8.69229 17.2721C8.68594 17.2636 8.67971 17.255 8.67324 17.2462C8.62833 17.1846 8.58364 17.1226 8.53943 17.0604C8.53285 17.0513 8.52626 17.0421 8.51956 17.0327C8.40586 16.8729 8.29743 16.7098 8.18956 16.546C8.17956 16.5308 8.17956 16.5308 8.16935 16.5154C8.04081 16.3204 7.91521 16.1234 7.79419 15.9236C7.78793 15.9133 7.78793 15.9133 7.78155 15.9027C7.58173 15.5728 7.39241 15.2375 7.21594 14.8946C7.19591 14.8559 7.17543 14.8175 7.15489 14.7792C6.70373 13.9342 6.34871 13.014 5.99718 10.7666C5.99716 10.7588 5.99713 10.7511 5.99709 10.7432C5.99691 10.7022 5.99681 10.6614 5.99675 10.6205C5.9967 10.5876 5.99654 10.5547 5.99627 10.5219C5.98803 9.49547 6.27153 8.43499 6.89321 7.60678C6.89826 7.59998 6.90332 7.59317 6.90853 7.58617C7.06573 7.37508 7.24366 7.18368 7.4298 6.99811C7.45407 6.97391 7.47827 6.94964 7.50246 6.92537C7.51817 6.90967 7.53389 6.89396 7.54962 6.87827C7.55669 6.87116 7.56377 6.86406 7.57107 6.85674C7.62151 6.80658 7.67405 6.75942 7.72805 6.71314C7.73909 6.70368 7.73909 6.70368 7.75034 6.69401C7.93424 6.53684 8.1363 6.40092 8.35124 6.28984C8.36035 6.28513 8.36941 6.2804 8.37881 6.27553C8.74779 6.08587 9.14593 5.99029 9.56017 5.99222Z" fill="white"></path>
                <path d="M15.9325 -0.00380929C15.9925 -0.00369536 16.0524 -0.00376324 16.1123 -0.00387807C16.4053 -0.0043541 16.697 0.00111975 16.9895 0.0187982C17.0022 0.0195543 17.0148 0.0203104 17.0279 0.0210894C17.0993 0.0254659 17.1706 0.0306054 17.242 0.0362982C17.2525 0.0371252 17.2631 0.0379522 17.2739 0.0388043C18.4175 0.129285 19.5498 0.338552 22.6695 1.4388C22.6808 1.44394 22.6921 1.44908 22.7038 1.45438C22.8724 1.53111 23.0387 1.61238 23.2045 1.69505C23.214 1.6998 23.2236 1.70456 23.2334 1.70945C23.3652 1.77502 23.4949 1.84356 23.6237 1.91465C23.6604 1.93482 23.6973 1.9547 23.7342 1.97458C23.861 2.043 23.9855 2.1153 24.1095 2.1888C24.1154 2.19229 24.1213 2.19579 24.1273 2.19939C24.1655 2.22203 24.2037 2.24474 24.2418 2.26751C24.254 2.27479 24.2662 2.28206 24.2784 2.28932C24.4636 2.39965 24.6442 2.51754 24.8242 2.63612C24.8521 2.6545 24.88 2.67281 24.908 2.69113C25.0171 2.76284 25.124 2.83695 25.2293 2.91416C25.2639 2.93925 25.2989 2.9637 25.3339 2.98818C25.4812 3.09187 25.6251 3.19987 25.7668 3.31108C25.7901 3.32931 25.8135 3.34745 25.8369 3.36556C25.9187 3.4289 25.9998 3.49282 26.0795 3.5588C26.0974 3.57339 26.1153 3.58797 26.1332 3.60255C26.1796 3.64049 26.2254 3.67908 26.2711 3.71792C26.3056 3.74723 26.3405 3.77597 26.3757 3.80443C26.4233 3.84316 26.4688 3.88388 26.5139 3.9254C26.542 3.95108 26.5705 3.97609 26.5992 4.00103C26.6316 4.02938 26.6634 4.05829 26.6953 4.08712C26.7155 4.10521 26.7358 4.123 26.7564 4.14068C26.8141 4.19099 26.8696 4.24381 26.9254 4.29628C26.943 4.31275 26.9608 4.3291 26.9786 4.34538C27.0989 4.45577 27.2138 4.57159 27.3291 4.68714C27.3588 4.71682 27.3884 4.74646 27.4181 4.77609C27.4413 4.79922 27.4644 4.82237 27.4875 4.84553C27.4985 4.85647 27.5094 4.8674 27.5204 4.87832C27.574 4.93184 27.627 4.98549 27.6761 5.04321C27.6929 5.06279 27.7109 5.08087 27.7295 5.0988C27.7609 5.12984 27.7902 5.16199 27.819 5.19548C27.8453 5.22543 27.8724 5.2546 27.8995 5.2838C27.9436 5.33146 27.9872 5.37949 28.0295 5.4288C28.0337 5.43365 28.0378 5.43851 28.0421 5.4435C28.0674 5.47291 28.0926 5.50235 28.1178 5.53181C28.1381 5.55558 28.1585 5.57931 28.179 5.60298C28.2573 5.69374 28.3336 5.78601 28.4095 5.8788C28.4152 5.88575 28.4209 5.89269 28.4267 5.89985C28.49 5.9771 28.5525 6.05483 28.613 6.13427C28.6325 6.15973 28.6521 6.185 28.6719 6.21021C28.7565 6.31824 28.8387 6.42784 28.9195 6.5388C28.9249 6.54628 28.9304 6.55375 28.936 6.56145C28.9741 6.61372 29.0119 6.6662 29.0495 6.7188C29.0545 6.72574 29.0594 6.73269 29.0646 6.73984C29.6019 7.49075 30.0667 8.29618 30.6795 9.5988C30.6825 9.60575 30.6855 9.6127 30.6886 9.61986C31.0518 10.4556 31.3411 11.3205 31.8395 13.6588C31.8409 13.6683 31.8423 13.6778 31.8437 13.6875C31.8927 14.0252 31.9302 14.3642 31.9585 14.7042C31.9592 14.7114 31.9598 14.7186 31.9604 14.726C31.9923 15.1185 32.0033 15.5104 32.0027 15.9041C32.0026 15.9399 32.0026 15.9758 32.0026 16.0116C32.0022 16.3476 31.9993 16.6823 31.972 17.0174C31.9693 17.0505 31.9668 17.0836 31.9643 17.1166C31.9247 17.6306 31.8594 18.1412 31.7695 18.6488C31.7678 18.6584 31.7661 18.6681 31.7643 18.6781C31.5887 19.6659 31.3147 20.6422 30.0295 23.5388C30.0212 23.5537 30.0212 23.5537 30.0128 23.5689C29.9308 23.717 29.8466 23.8636 29.7595 24.0088C29.753 24.0196 29.7465 24.0304 29.7398 24.0415C29.4851 24.466 29.2116 24.8792 28.9195 25.2788C28.911 25.2903 28.911 25.2903 28.9024 25.3022C28.8196 25.4155 28.7353 25.5277 28.6495 25.6388C28.6438 25.6461 28.6381 25.6535 28.6323 25.6611C28.5542 25.7623 28.4748 25.8624 28.3938 25.9613C28.3809 25.977 28.3681 25.9928 28.3552 26.0086C28.3109 26.0631 28.2659 26.1169 28.2204 26.1704C28.1911 26.2049 28.1623 26.2398 28.1339 26.275C28.0957 26.322 28.0553 26.3666 28.0143 26.4111C27.9894 26.4388 27.9659 26.4673 27.9426 26.4963C27.9122 26.5339 27.8808 26.5686 27.8461 26.6022C27.829 26.6192 27.8133 26.6368 27.7976 26.655C27.7515 26.7084 27.7033 26.7599 27.6552 26.8117C27.64 26.8282 27.6248 26.8448 27.6096 26.8614C27.5532 26.9233 27.4957 26.9836 27.4358 27.0421C27.4087 27.0687 27.3831 27.0959 27.3584 27.1248C27.3121 27.1783 27.2619 27.2279 27.2118 27.2778C27.1951 27.2943 27.1786 27.311 27.162 27.3276C27.1118 27.3778 27.0613 27.427 27.0073 27.4732C26.9765 27.5002 26.9481 27.5295 26.9195 27.5588C26.8778 27.6013 26.8352 27.6417 26.7901 27.6806C26.754 27.7123 26.7193 27.7456 26.6845 27.7788C26.6363 27.8246 26.5876 27.8697 26.5373 27.9133C26.515 27.9327 26.4932 27.9526 26.4714 27.9725C26.4277 28.012 26.3825 28.0492 26.3367 28.0863C26.3103 28.1081 26.2848 28.1307 26.2595 28.1538C26.217 28.1924 26.1732 28.2289 26.1285 28.265C26.0974 28.2904 26.0669 28.3164 26.0364 28.3425C25.9805 28.3901 25.9232 28.4357 25.8653 28.4807C25.8354 28.504 25.8059 28.5277 25.7764 28.5515C25.7048 28.6094 25.6317 28.6652 25.5578 28.7202C25.5138 28.7529 25.4701 28.7859 25.4267 28.8193C25.336 28.8892 25.2449 28.9575 25.1495 29.021C25.1017 29.053 25.0552 29.0865 25.0089 29.1208C24.9302 29.179 24.8493 29.2335 24.7676 29.2875C24.753 29.2972 24.7384 29.3069 24.7238 29.3166C24.6234 29.3832 24.5228 29.4496 24.4214 29.5147C24.4069 29.524 24.3924 29.5333 24.378 29.5427C24.218 29.646 24.0537 29.7423 23.8895 29.8388C23.8799 29.8444 23.8704 29.85 23.8605 29.8558C23.8071 29.8871 23.7534 29.9181 23.6995 29.9488C23.6861 29.9564 23.6861 29.9564 23.6725 29.9641C23.2453 30.2071 22.807 30.4341 22.3571 30.6321C22.3261 30.6458 22.2951 30.6597 22.2642 30.6736C21.3447 31.0876 20.3767 31.4034 16.2827 32.0004C16.2597 32.0005 16.2366 32.0005 16.2135 32.0005C16.1655 32.0006 16.1174 32.0006 16.0693 32.0006C16.021 32.0006 15.9727 32.0007 15.9244 32.0008C15.6189 32.0017 15.3145 31.9974 15.0095 31.9788C14.9966 31.978 14.9838 31.9772 14.9705 31.9764C14.8976 31.9718 14.8248 31.9665 14.752 31.9606C14.7413 31.9598 14.7306 31.9589 14.7196 31.9581C13.6647 31.8743 12.6192 31.6902 10.7395 31.1288C10.729 31.1252 10.729 31.1252 10.7183 31.1215C9.94409 30.8575 9.17683 30.5284 8.38503 30.0929C8.35706 30.0774 8.32892 30.0623 8.30073 30.0472C8.29067 30.0418 8.28061 30.0364 8.27025 30.0308C8.24984 30.0199 8.22937 30.0091 8.20883 29.9985C8.14933 29.9671 8.09686 29.9336 8.04556 29.8899C7.96169 29.8334 7.96169 29.8334 7.86348 29.8217C7.82243 29.8309 7.78277 29.8423 7.74265 29.8549C7.72762 29.8593 7.71258 29.8636 7.69753 29.8679C7.66654 29.8769 7.63562 29.886 7.60473 29.8953C7.56278 29.9079 7.52065 29.9197 7.4784 29.9313C7.47188 29.933 7.46536 29.9348 7.45864 29.9367C7.44549 29.9403 7.43234 29.9438 7.41919 29.9474C7.38539 29.9567 7.35163 29.9661 7.31788 29.9756C7.30391 29.9795 7.28993 29.9834 7.27596 29.9873C7.26888 29.9892 7.26181 29.9912 7.25452 29.9933C7.19199 30.0107 7.12944 30.0281 7.0669 30.0455C7.0504 30.0501 7.03391 30.0547 7.01741 30.0593C6.82543 30.1127 6.63333 30.1658 6.44121 30.2187C6.41372 30.2263 6.38624 30.2339 6.35875 30.2414C6.26595 30.267 6.17315 30.2926 6.08034 30.3182C5.90882 30.3655 5.73731 30.4128 5.5658 30.4601C5.54782 30.465 5.52985 30.47 5.51188 30.4749C5.21771 30.5561 4.92359 30.6374 4.62948 30.7188C4.39667 30.7832 4.16386 30.8476 3.93101 30.9118C3.92171 30.9144 3.91242 30.917 3.90285 30.9196C3.80225 30.9474 3.70165 30.9751 3.60104 31.0028C3.56578 31.0125 3.53052 31.0222 3.49526 31.032C3.48665 31.0343 3.47804 31.0367 3.46917 31.0391C3.35854 31.0696 3.24797 31.1003 3.13744 31.1311C3.08135 31.1468 3.02524 31.1624 2.96913 31.178C2.9321 31.1883 2.89509 31.1986 2.85809 31.209C2.65354 31.2666 2.46037 31.315 2.24698 31.3131C2.23944 31.3131 2.2319 31.3131 2.22413 31.313C2.09609 31.3123 1.97362 31.3021 1.84948 31.2688C1.83802 31.2657 1.83802 31.2657 1.82632 31.2626C1.50002 31.1719 1.19381 30.9695 0.989482 30.6988C0.977842 30.6839 0.977842 30.6839 0.965966 30.6688C0.775134 30.4199 0.659365 30.1029 0.649482 29.7888C0.649082 29.7776 0.648683 29.7664 0.648271 29.7549C0.645754 29.6156 0.659846 29.4804 0.692958 29.3451C0.695513 29.3346 0.698067 29.324 0.700699 29.3132C0.744006 29.1373 0.792014 28.9625 0.839153 28.7876C0.85359 28.734 0.867988 28.6804 0.88239 28.6268C0.906302 28.5378 0.930237 28.4489 0.954189 28.3599C0.987292 28.2369 1.02035 28.1139 1.05339 27.9909C1.09468 27.8372 1.136 27.6835 1.17733 27.5298C1.21888 27.3754 1.26042 27.2209 1.30194 27.0664C1.30452 27.0568 1.3071 27.0472 1.30976 27.0373C1.32279 26.9889 1.33582 26.9404 1.34885 26.8919C1.37229 26.8047 1.39573 26.7175 1.41917 26.6303C1.43219 26.5819 1.44521 26.5334 1.45823 26.485C1.46344 26.4656 1.46865 26.4463 1.47386 26.4269C1.47644 26.4173 1.47901 26.4077 1.48167 26.3978C1.48948 26.3688 1.49729 26.3397 1.50511 26.3106C1.50769 26.301 1.51026 26.2914 1.51292 26.2816C1.51813 26.2622 1.52334 26.2428 1.52854 26.2234C1.54157 26.175 1.5546 26.1265 1.56762 26.0781C1.59099 25.9911 1.61436 25.9042 1.63773 25.8173C1.65066 25.7692 1.66358 25.7211 1.67651 25.673C1.67908 25.6635 1.68164 25.6539 1.68428 25.6441C1.71934 25.5137 1.75439 25.3833 1.78943 25.2528C1.80057 25.2114 1.81171 25.1699 1.82285 25.1285C1.82837 25.108 1.83388 25.0874 1.83939 25.0669C1.8421 25.0568 1.84481 25.0468 1.84761 25.0364C1.86369 24.9765 1.87975 24.9167 1.8958 24.8568C1.94153 24.6864 1.98728 24.5159 2.0344 24.3459C2.04077 24.3228 2.04713 24.2997 2.0535 24.2767C2.06448 24.2368 2.07562 24.1971 2.08687 24.1573C2.09153 24.1405 2.09617 24.1237 2.10081 24.1069C2.10291 24.0997 2.10501 24.0925 2.10717 24.085C2.12178 24.0313 2.12079 23.9934 2.09756 23.9428C2.09257 23.9342 2.08759 23.9255 2.08245 23.9166C2.07684 23.9068 2.07122 23.897 2.06544 23.8868C2.0563 23.8711 2.0563 23.8711 2.04698 23.855C2.03409 23.8324 2.02121 23.8098 2.00835 23.7871C2.00182 23.7757 1.99529 23.7642 1.98856 23.7524C1.88368 23.5674 1.78616 23.3782 1.68948 23.1888C1.68381 23.1776 1.67813 23.1665 1.67228 23.1551C1.3403 22.5027 1.06409 21.8217 0.829482 21.1288C0.826639 21.1204 0.823797 21.112 0.820869 21.1033C0.479763 20.0956 0.243497 19.052 0.0316815 17.1688C0.0295094 17.1391 0.0272186 17.1094 0.0249066 17.0797C-0.0301057 16.3592 -0.0289035 15.6187 0.0272039 14.8982C0.0295135 14.8684 0.0317012 14.8385 0.0338617 14.8086C0.0810924 14.1611 0.167288 13.5163 0.289482 12.8788C0.291235 12.8696 0.292989 12.8604 0.294796 12.8509C0.394571 12.331 0.524234 11.8149 0.679482 11.3088C0.682352 11.2994 0.685223 11.29 0.688181 11.2804C0.868184 10.6941 1.07957 10.1189 1.32948 9.5588C1.33425 9.54809 1.33425 9.54809 1.33912 9.53717C1.42881 9.33589 1.52205 9.13646 1.61948 8.9388C1.62314 8.93138 1.62679 8.92397 1.63055 8.91632C1.72171 8.73141 1.81312 8.54684 1.91385 8.36691C1.93178 8.33467 1.94943 8.30229 1.96706 8.2699C2.04869 8.12015 2.13352 7.97286 2.22227 7.82717C2.23853 7.80037 2.25461 7.77349 2.27061 7.74654C2.34439 7.62232 2.42129 7.50028 2.49948 7.3788C2.5073 7.3666 2.5073 7.3666 2.51528 7.35414C2.69478 7.07412 2.8835 6.79959 3.08185 6.53261C3.09983 6.50833 3.1177 6.48397 3.13554 6.45958C3.20092 6.37024 3.26733 6.28201 3.3363 6.19541C3.34967 6.17857 3.36293 6.16165 3.37616 6.1447C3.44134 6.06124 3.50777 5.97885 3.57476 5.89684C3.58771 5.88097 3.60061 5.86507 3.61351 5.84915C3.65976 5.79219 3.70713 5.73631 3.75505 5.68075C3.78569 5.64516 3.81564 5.60913 3.84511 5.57255C3.88611 5.52202 3.92964 5.47427 3.97386 5.42658C4.00052 5.39768 4.02644 5.36825 4.05222 5.33857C4.12317 5.25734 4.19634 5.17805 4.26948 5.0988C4.27779 5.0898 4.27779 5.0898 4.28626 5.08061C4.35393 5.00737 4.42209 4.93501 4.49351 4.8654C4.51334 4.84509 4.53177 4.82471 4.55019 4.80318C4.59534 4.75111 4.64411 4.70268 4.69291 4.65407C4.70883 4.63821 4.72469 4.62229 4.74056 4.60636C4.78949 4.55739 4.83889 4.50958 4.89154 4.46457C4.92236 4.43749 4.95082 4.40812 4.97948 4.3788C5.02112 4.33622 5.06373 4.29585 5.10882 4.25693C5.14497 4.22522 5.17964 4.19193 5.21448 4.1588C5.29033 4.08668 5.36858 4.01791 5.44823 3.95005C5.4898 3.91456 5.53094 3.87873 5.57136 3.84193C5.61322 3.80395 5.65648 3.7681 5.70042 3.73255C5.73152 3.70714 5.76207 3.68114 5.79261 3.65505C5.84249 3.61256 5.89342 3.57166 5.94513 3.53142C5.98981 3.49659 6.03378 3.46095 6.07761 3.42505C6.16011 3.35769 6.24447 3.29296 6.32948 3.2288C6.33743 3.22279 6.34537 3.21678 6.35356 3.21059C6.60443 3.02094 6.86123 2.84021 7.12198 2.66443C7.13137 2.6581 7.14076 2.65176 7.15043 2.64524C7.28235 2.55636 7.4147 2.46873 7.55074 2.38624C7.57702 2.3703 7.60324 2.35424 7.62943 2.33815C8.19311 1.99199 8.77746 1.67316 9.3822 1.40436C9.42481 1.38541 9.46726 1.36614 9.50964 1.34665C9.8071 1.21043 10.112 1.08895 10.4191 0.97626C10.4333 0.97106 10.4475 0.96585 10.4617 0.960633C11.4711 0.588978 12.5162 0.324776 14.7226 0.0391497C14.7301 0.0385225 14.7376 0.0378952 14.7454 0.0372489C15.1408 0.0055366 15.536 -0.00456998 15.9325 -0.00380929ZM14.8407 0.976298C14.8247 0.977539 14.8247 0.977539 14.8082 0.978804C14.22 1.02454 13.6344 1.1007 13.0553 1.21377C13.0299 1.21872 13.0045 1.22361 12.9792 1.22849C12.0899 1.40069 11.2115 1.66313 10.2195 2.0688C10.2131 2.07146 10.2067 2.07411 10.2002 2.07685C9.89473 2.20434 9.59479 2.34357 9.29789 2.48975C9.28036 2.49837 9.26283 2.50697 9.24529 2.51556C9.11168 2.58115 8.98016 2.64981 8.84998 2.72195C8.81637 2.74052 8.78267 2.75895 8.74897 2.77736C8.60079 2.85841 8.45412 2.94154 8.30948 3.0288C8.30019 3.03439 8.29089 3.03998 8.28131 3.04574C7.94623 3.24739 7.61745 3.46103 7.29948 3.6888C7.29206 3.69411 7.28464 3.69941 7.27699 3.70488C7.2243 3.74259 7.17183 3.78062 7.11948 3.8188C7.11155 3.82458 7.10362 3.83036 7.09544 3.83631C6.99758 3.90769 6.90084 3.98015 6.80609 4.05562C6.78925 4.06899 6.77233 4.08225 6.75538 4.09548C6.67193 4.16064 6.58956 4.22706 6.50757 4.29404C6.49156 4.30711 6.47552 4.32014 6.45948 4.33318C6.38869 4.3908 6.31896 4.44961 6.24948 4.5088C6.24361 4.5138 6.23773 4.5188 6.23168 4.52394C6.16421 4.58136 6.09728 4.63922 6.03167 4.69876C6.01155 4.71693 5.99122 4.7348 5.97073 4.75255C5.9316 4.78663 5.89339 4.82169 5.85522 4.85683C5.82251 4.88694 5.78953 4.91671 5.75636 4.9463C5.72223 4.97689 5.68955 5.0084 5.65748 5.04113C5.64031 5.05798 5.62261 5.07354 5.60427 5.0891C5.55014 5.1362 5.49978 5.18706 5.44913 5.23783C5.43865 5.2483 5.42817 5.25877 5.41769 5.26924C5.39585 5.29106 5.37403 5.31291 5.35221 5.33477C5.32446 5.36258 5.29665 5.39035 5.26884 5.41811C5.24723 5.43968 5.22564 5.46128 5.20406 5.48289C5.19382 5.49313 5.18358 5.50336 5.17333 5.51359C5.12155 5.56528 5.0706 5.61727 5.0231 5.67298C5.00618 5.69263 4.98813 5.7108 4.96948 5.7288C4.93802 5.75984 4.90875 5.79199 4.87995 5.82548C4.85367 5.85543 4.82659 5.8846 4.79948 5.9138C4.75533 5.96146 4.71179 6.00949 4.66948 6.0588C4.66531 6.06365 4.66115 6.06851 4.65685 6.0735C4.63165 6.10283 4.60649 6.13219 4.58136 6.16158C4.56036 6.18612 4.53932 6.21062 4.51823 6.23509C4.46612 6.29561 4.41453 6.35643 4.36421 6.41845C4.34502 6.44201 4.32572 6.46546 4.30632 6.48884C4.2403 6.56848 4.17566 6.64874 4.11306 6.73109C4.09788 6.75089 4.08253 6.77054 4.06714 6.79017C3.98246 6.8982 3.90028 7.00784 3.81948 7.1188C3.81146 7.12977 3.81146 7.12977 3.80329 7.14097C3.58357 7.44186 3.37478 7.75147 3.17948 8.0688C3.17323 8.07895 3.16698 8.0891 3.16054 8.09955C3.05726 8.26763 2.95675 8.43716 2.85948 8.6088C2.85024 8.62509 2.85024 8.62509 2.84082 8.64171C2.75479 8.79388 2.67285 8.94779 2.59315 9.10333C2.57008 9.14835 2.54666 9.19314 2.52268 9.23767C2.4643 9.34615 2.41171 9.45726 2.35948 9.5688C2.35328 9.58198 2.34708 9.59516 2.34088 9.60833C1.94541 10.4498 1.63236 11.3276 0.979833 14.7898C0.979206 14.7973 0.978579 14.8047 0.977933 14.8123C0.947277 15.1909 0.935991 15.5704 0.936874 15.9501C0.936988 15.9995 0.936921 16.0489 0.936806 16.0983C0.936105 16.4553 0.947797 16.8116 0.976982 17.1675C0.977805 17.1778 0.978629 17.188 0.979478 17.1986C1.0603 18.1989 1.23623 19.1905 2.25948 22.1888C2.26416 22.1991 2.26884 22.2094 2.27366 22.22C2.44475 22.5971 2.62625 22.9709 2.83296 23.3298C2.86133 23.3795 2.88893 23.4297 2.91662 23.4799C3.00892 23.6564 3.00892 23.6564 3.11776 23.8226C3.14482 23.883 3.11533 23.9618 3.09845 24.0233C3.09523 24.0353 3.09523 24.0353 3.09196 24.0475C3.08484 24.074 3.07763 24.1005 3.07042 24.127C3.06529 24.1461 3.06016 24.1651 3.05504 24.1842C3.04117 24.2358 3.02721 24.2873 3.01324 24.3389C2.99845 24.3935 2.98374 24.4482 2.96902 24.5029C2.94457 24.5936 2.92009 24.6843 2.89558 24.775C2.86208 24.8991 2.8287 25.0231 2.79538 25.1472C2.79022 25.1664 2.78506 25.1856 2.7799 25.2048C2.77221 25.2334 2.76453 25.2621 2.75684 25.2907C2.72846 25.3963 2.70005 25.502 2.67163 25.6077C2.66128 25.6462 2.65092 25.6847 2.64057 25.7231C2.63801 25.7327 2.63545 25.7422 2.6328 25.752C2.6042 25.8584 2.57561 25.9647 2.54702 26.0711C2.54444 26.0807 2.54186 26.0903 2.5392 26.1002C2.52618 26.1486 2.51315 26.1971 2.50012 26.2456C2.47668 26.3328 2.45323 26.42 2.42979 26.5072C2.41677 26.5556 2.40375 26.6041 2.39073 26.6525C2.38552 26.6719 2.38032 26.6913 2.37511 26.7106C2.37253 26.7202 2.36995 26.7298 2.36729 26.7397C2.35948 26.7688 2.35167 26.7978 2.34386 26.8269C2.33999 26.8413 2.33999 26.8413 2.33604 26.8559C2.33084 26.8753 2.32563 26.8947 2.32042 26.9141C2.3074 26.9625 2.29437 27.011 2.28135 27.0594C2.25794 27.1465 2.23452 27.2336 2.21111 27.3207C2.19812 27.369 2.18513 27.4173 2.17214 27.4657C2.16956 27.4752 2.16699 27.4848 2.16434 27.4947C2.13008 27.6221 2.09583 27.7495 2.06158 27.877C2.04296 27.9463 2.02433 28.0156 2.0057 28.0849C1.99259 28.1337 1.97947 28.1825 1.96636 28.2313C1.91309 28.4295 1.85978 28.6277 1.8063 28.8259C1.79893 28.8533 1.79155 28.8806 1.78418 28.9079C1.78179 28.9168 1.7794 28.9256 1.77694 28.9348C1.7722 28.9524 1.76745 28.97 1.7627 28.9876C1.75137 29.0296 1.74004 29.0716 1.72868 29.1136C1.70532 29.2 1.68204 29.2865 1.65901 29.373C1.65297 29.3957 1.6469 29.4184 1.6408 29.441C1.60336 29.5772 1.60336 29.5772 1.59386 29.7175C1.59403 29.7262 1.5942 29.7349 1.59438 29.7439C1.60113 29.9294 1.68644 30.0833 1.81948 30.2088C1.96025 30.3285 2.12297 30.3815 2.3076 30.3708C2.34206 30.3676 2.37528 30.3598 2.40877 30.3514C2.41609 30.3497 2.42341 30.3479 2.43095 30.346C2.51217 30.3261 2.59278 30.3039 2.67335 30.2815C2.69001 30.2769 2.70668 30.2723 2.72335 30.2677C2.76829 30.2553 2.81322 30.2428 2.85814 30.2303C2.90623 30.217 2.95433 30.2037 3.00243 30.1904C3.08367 30.1679 3.16491 30.1454 3.24614 30.1229C3.36585 30.0898 3.48557 30.0566 3.6053 30.0235C3.63456 30.0154 3.66381 30.0073 3.69307 29.9992C3.71256 29.9939 3.73206 29.9885 3.75156 29.9831C3.82037 29.964 3.88919 29.945 3.95801 29.926C4.22159 29.853 4.48521 29.7802 4.74886 29.7075C4.75778 29.705 4.7667 29.7026 4.77589 29.7C4.91936 29.6605 5.06283 29.6209 5.20631 29.5814C5.34091 29.5442 5.47551 29.5071 5.61011 29.47C5.61902 29.4675 5.62794 29.4651 5.63713 29.4626C5.95084 29.376 6.26449 29.2893 6.57813 29.2025C6.79782 29.1417 7.01754 29.081 7.23729 29.0204C7.24737 29.0176 7.25744 29.0148 7.26782 29.012C7.36472 28.9853 7.46161 28.9585 7.55852 28.9319C7.59364 28.9222 7.62876 28.9125 7.66388 28.9028C7.67997 28.8984 7.69607 28.8939 7.71216 28.8895C7.72715 28.8854 7.74214 28.8813 7.75713 28.8771C7.77126 28.8732 7.78539 28.8694 7.79952 28.8655C7.83286 28.8563 7.86603 28.8468 7.89906 28.8366C7.91139 28.8328 7.92371 28.8291 7.93642 28.8252C7.94717 28.8218 7.95793 28.8184 7.96901 28.8149C8.02863 28.8029 8.06899 28.8212 8.11964 28.8516C8.12528 28.855 8.13092 28.8583 8.13673 28.8618C8.14887 28.869 8.16097 28.8763 8.17306 28.8836C8.19234 28.8952 8.21168 28.9067 8.23104 28.9182C8.2577 28.9341 8.28433 28.9499 8.31095 28.9658C8.59173 29.1332 8.87807 29.2906 9.16948 29.4386C9.19032 29.4492 9.21114 29.4598 9.23196 29.4704C9.44526 29.579 9.66038 29.6824 9.87948 29.7788C9.88643 29.7818 9.89338 29.7849 9.90054 29.788C10.7093 30.144 11.5468 30.4267 14.8257 31.0213C14.8402 31.0224 14.8402 31.0224 14.855 31.0236C15.2184 31.0522 15.5823 31.0626 15.9468 31.0619C15.977 31.0619 16.0072 31.0619 16.0374 31.0618C16.3556 31.0615 16.6722 31.0549 16.9895 31.031C17.0192 31.0288 17.0489 31.0266 17.0785 31.0245C18.137 30.9482 19.1869 30.7453 21.6295 29.9188C21.636 29.916 21.6425 29.9132 21.6492 29.9104C21.8378 29.8305 22.0243 29.7463 22.2095 29.6588C22.2197 29.6539 22.2299 29.6491 22.2405 29.6441C22.4941 29.5242 22.7468 29.4011 22.9918 29.2642C23.0222 29.2472 23.0528 29.2304 23.0834 29.2137C23.2441 29.1253 23.4023 29.0333 23.5595 28.9388C23.5694 28.9328 23.5794 28.9268 23.5896 28.9207C23.8069 28.7902 24.0194 28.6531 24.2295 28.5113C24.2372 28.5061 24.2449 28.5009 24.2528 28.4955C24.3627 28.4213 24.4715 28.3456 24.5795 28.2688C24.5883 28.2625 24.5972 28.2562 24.6063 28.2497C24.7122 28.1744 24.8159 28.0963 24.9191 28.0173C24.9568 27.9884 24.9948 27.9598 25.033 27.9315C25.1003 27.8815 25.166 27.8298 25.2309 27.7766C25.2735 27.7417 25.3166 27.7075 25.3601 27.6738C25.4169 27.6296 25.4714 27.5832 25.5255 27.5358C25.5621 27.5037 25.5991 27.4724 25.637 27.4419C25.6836 27.4042 25.7277 27.3642 25.7718 27.3236C25.7995 27.2987 25.828 27.2752 25.857 27.2519C25.8947 27.2215 25.9294 27.19 25.963 27.1553C25.9796 27.1387 25.9967 27.1234 26.0145 27.1081C26.0668 27.0629 26.117 27.0155 26.1674 26.9681C26.1928 26.9443 26.2183 26.9206 26.2438 26.897C26.3582 26.7912 26.4685 26.6813 26.5785 26.571C26.605 26.5444 26.6316 26.5179 26.6582 26.4914C26.679 26.4706 26.6998 26.4498 26.7205 26.429C26.7303 26.4192 26.7401 26.4094 26.7499 26.3997C26.8003 26.3494 26.8495 26.2988 26.8957 26.2447C26.9127 26.2251 26.9308 26.2068 26.9495 26.1888C26.9809 26.1577 27.0102 26.1256 27.039 26.0921C27.0653 26.0621 27.0924 26.033 27.1195 26.0038C27.1886 25.9291 27.2551 25.8524 27.3212 25.7751C27.3538 25.7369 27.3867 25.6989 27.4197 25.661C27.4775 25.5946 27.5341 25.5273 27.5895 25.4588C27.5997 25.4463 27.6098 25.4338 27.62 25.4213C27.6858 25.3408 27.7508 25.2596 27.8148 25.1776C27.8306 25.1573 27.8466 25.137 27.8625 25.1167C27.947 25.0089 28.0289 24.8995 28.1095 24.7888C28.115 24.7811 28.1206 24.7735 28.1263 24.7656C28.3253 24.492 28.5171 24.2137 28.6995 23.9288C28.7043 23.9213 28.7091 23.9138 28.714 23.9061C28.7914 23.7849 28.8663 23.6624 28.9395 23.5388C28.9459 23.5279 28.9523 23.5171 28.9589 23.506C29.1012 23.2659 29.2379 23.0231 29.3659 22.775C29.383 22.742 29.4004 22.7092 29.4178 22.6764C29.5252 22.4737 29.6242 22.2674 29.7195 22.0588C29.7248 22.0472 29.7301 22.0357 29.7355 22.0238C30.1275 21.1663 30.4354 20.2711 31.0481 16.6751C31.049 16.6578 31.05 16.6406 31.0509 16.6233C31.0623 16.4242 31.0614 16.2248 31.0613 16.0255C31.0613 15.9859 31.0614 15.9464 31.0615 15.9068C31.0628 15.542 31.0512 15.1786 31.0214 14.815C31.0205 14.8046 31.0197 14.7941 31.0188 14.7834C30.9376 13.7785 30.7555 12.7839 30.2795 11.1788C30.2765 11.1698 30.2735 11.1609 30.2705 11.1518C30.1385 10.7573 29.9862 10.3698 29.8195 9.9888C29.8143 9.97694 29.8091 9.96508 29.8038 9.95285C29.6497 9.60131 29.4863 9.25177 29.3007 8.91568C29.2788 8.87584 29.2571 8.83583 29.2357 8.79568C29.157 8.64796 29.075 8.50266 28.9895 8.3588C28.9802 8.34311 28.9802 8.34311 28.9707 8.3271C28.8891 8.18964 28.8058 8.05336 28.7195 7.9188C28.7128 7.90831 28.7128 7.90831 28.7059 7.8976C28.5634 7.67498 28.416 7.45559 28.2606 7.24173C28.2418 7.21583 28.2231 7.18985 28.2046 7.16368C28.1291 7.05654 28.0493 6.95276 27.9695 6.8488C27.9599 6.83633 27.9504 6.82386 27.9409 6.81138C27.9172 6.78044 27.8934 6.7496 27.8695 6.7188C27.8653 6.71344 27.8612 6.70809 27.8569 6.70257C27.757 6.57385 27.6534 6.4482 27.5478 6.32416C27.5194 6.29066 27.4915 6.25675 27.4639 6.22255C27.4251 6.17495 27.3844 6.12952 27.3429 6.08435C27.3229 6.06253 27.3033 6.0405 27.2839 6.01818C27.2505 5.97985 27.2166 5.94209 27.1826 5.90439C27.1677 5.88788 27.1528 5.87134 27.138 5.85478C27.0131 5.71521 27.0131 5.71521 26.8818 5.58173C26.863 5.56243 26.8455 5.54276 26.828 5.52235C26.7906 5.47955 26.7513 5.43917 26.7111 5.39908C26.7038 5.39181 26.6966 5.38454 26.6891 5.37705C26.6739 5.36181 26.6586 5.34657 26.6433 5.33135C26.6202 5.30824 26.5971 5.28508 26.574 5.26191C26.559 5.247 26.5441 5.2321 26.5292 5.2172C26.5224 5.21038 26.5156 5.20355 26.5086 5.19652C26.4693 5.15738 26.4289 5.12005 26.3868 5.08392C26.3632 5.06332 26.3413 5.04124 26.3195 5.0188C26.2853 4.98421 26.2504 4.95151 26.2134 4.9199C26.1798 4.89025 26.1472 4.85949 26.1145 4.8288C26.0636 4.78115 26.0125 4.73404 25.9595 4.6888C25.9493 4.68005 25.9391 4.6713 25.9289 4.66255C25.9112 4.64739 25.8935 4.63224 25.8758 4.6171C25.8376 4.58444 25.7996 4.55158 25.7618 4.51859C25.6953 4.46074 25.628 4.4042 25.5595 4.3488C25.5474 4.33886 25.5352 4.32891 25.5231 4.31896C25.4473 4.25677 25.3705 4.1961 25.2923 4.13686C25.2459 4.10162 25.2003 4.06552 25.1551 4.0288C25.0873 3.97402 25.0172 3.92303 24.9463 3.8724C24.891 3.83286 24.8364 3.79235 24.782 3.75164C24.6477 3.65197 24.5075 3.5602 24.3684 3.46747C24.3415 3.44951 24.3146 3.43151 24.2877 3.41351C24.1286 3.3073 23.9674 3.20482 23.8039 3.10568C23.798 3.10215 23.7922 3.09862 23.7862 3.09499C23.5921 2.97737 23.3952 2.8651 23.195 2.75801C23.167 2.74296 23.1392 2.72765 23.1114 2.7123C22.9778 2.63875 22.8428 2.56866 22.7064 2.50068C22.696 2.49548 22.6855 2.49029 22.6748 2.48494C22.5016 2.39857 22.3273 2.31553 22.15 2.23782C22.1286 2.22841 22.1072 2.21894 22.0858 2.20947C21.8527 2.10641 21.6175 2.00985 21.3795 1.9188C21.373 1.91633 21.3665 1.91385 21.3599 1.9113C20.5427 1.59928 19.6983 1.36353 18.8395 1.1988C18.8252 1.19606 18.8252 1.19606 18.8106 1.19325C18.2675 1.08952 17.7193 1.02043 17.1682 0.976923C17.1584 0.976134 17.1487 0.975345 17.1386 0.974532C16.7822 0.946147 16.4254 0.935341 16.0679 0.936191C16.0198 0.936305 15.9716 0.936237 15.9235 0.936122C15.562 0.935394 15.2011 0.947989 14.8407 0.976298Z" fill="white"></path>
              </g>
            </g>
            <defs>
              <clipPath id="clip0_4294_5307">
                <rect width="32" height="32" fill="white"></rect>
              </clipPath>
            </defs>
          </svg>